G04 ================== begin FILE IDENTIFICATION RECORD ==================*
G04 Layout Name:  AVRUSB500.brd*
G04 Film Name:    BOTTOM*
G04 File Format:  Gerber RS274X*
G04 File Origin:  Cadence Allegro 17.2-P019*
G04 Origin Date:  Mon Jul 29 15:43:25 2019*
G04 *
G04 Layer:  ETCH/BOTTOM*
G04 Layer:  PIN/BOTTOM*
G04 Layer:  VIA CLASS/BOTTOM*
G04 *
G04 Offset:    (0.000 0.000)*
G04 Mirror:    No*
G04 Mode:      Positive*
G04 Rotation:  0*
G04 FullContactRelief:  No*
G04 UndefLineWidth:     0.000*
G04 ================== end FILE IDENTIFICATION RECORD ====================*
%FSLAX55Y55*MOMM*%
%IR0*IPPOS*OFA0.00000B0.00000*MIA0B0*SFA1.00000B1.00000*%
%ADD13C,1.321*%
%ADD16R,1.321X1.321*%
%ADD14C,1.575*%
%ADD15R,1.575X1.575*%
%ADD11O,1.9X1.2*%
%ADD12C,.61*%
%ADD10C,.635*%
%ADD17C,.254*%
%ADD18C,.381*%
%ADD19C,1.58*%
%ADD21C,1.834*%
%ADD20R,5.084X5.084*%
G75*
%LPD*%
G75*
G36*
G01X300100Y300100D02*
Y4199900D01*
X9699900D01*
Y300100D01*
X300100D01*
G37*
%LPC*%
G75*
G36*
G01X6534000Y3641000D02*
G02X6521000Y3654000I-50J12950D01*
G01Y3786000D01*
G02X6534000Y3799000I12950J50D01*
G01X6666000D01*
G02X6679000Y3786000I50J-12950D01*
G01Y3654000D01*
G02X6666000Y3641000I-12950J-50D01*
G01X6534000D01*
G37*
G36*
G01X5814000D02*
G02X5801000Y3654000I-50J12950D01*
G01Y3786000D01*
G02X5814000Y3799000I12950J50D01*
G01X5946000D01*
G02X5959000Y3786000I50J-12950D01*
G01Y3654000D01*
G02X5946000Y3641000I-12950J-50D01*
G01X5814000D01*
G37*
G36*
G01X8334000Y3161000D02*
G02X8321000Y3174000I-50J12950D01*
G01Y3306000D01*
G02X8334000Y3319000I12950J50D01*
G01X8466000D01*
G02X8479000Y3306000I50J-12950D01*
G01Y3174000D01*
G02X8466000Y3161000I-12950J-50D01*
G01X8334000D01*
G37*
G36*
G01X3726200Y2480800D02*
G02X3687300Y2519700I-43200J-4300D01*
G01X3689700Y2519400D01*
X3807400Y2637100D01*
X4290500D01*
X4302000Y2625600D01*
X6382000D01*
G02Y2574400I35000J-25600D01*
G01X4319500D01*
G03X4310600Y2559100I-49J-10210D01*
G02X4180300Y2569300I-68611J-39118D01*
G03X4172300Y2585900I-7952J6396D01*
G01X3828600D01*
X3725900Y2483200D01*
X3726200Y2480800D01*
G37*
G36*
G01X1005000Y2119600D02*
X935000D01*
G02Y2265400I0J72900D01*
G01X1005000D01*
G02Y2119600I0J-72900D01*
G37*
G36*
G01X635000D02*
X565000D01*
G02Y2265400I0J72900D01*
G01X635000D01*
G02Y2119600I0J-72900D01*
G37*
G36*
G01X9438800Y2068400D02*
X9281200D01*
G02X9268400Y2081200I50J12850D01*
G01Y2238800D01*
G02X9281200Y2251600I12850J-50D01*
G01X9438800D01*
G02X9451600Y2238800I-50J-12850D01*
G01Y2081200D01*
G02X9438800Y2068400I-12850J50D01*
G37*
G36*
G01X5496000Y1688900D02*
G02Y1740100I-35000J25600D01*
G01X6021900D01*
X6133900Y1852100D01*
Y1933500D01*
G02X6185100I25600J35000D01*
G01Y1830900D01*
X6043100Y1688900D01*
X5496000D01*
G37*
G36*
G01X2065300Y1488000D02*
G02Y1552000I-29300J32000D01*
G01X2869600D01*
X2889000Y1571400D01*
Y2002700D01*
G02X2917300Y2075200I32013J29277D01*
G01X2919100Y2075400D01*
X3225200Y2381500D01*
X5220300D01*
X5334000Y2267800D01*
X5574700Y2508500D01*
X7778500D01*
Y3949100D01*
X7759100Y3968500D01*
X7352000D01*
Y3799000D01*
X7386000D01*
G02X7399000Y3786000I50J-12950D01*
G01Y3654000D01*
G02X7386000Y3641000I-12950J-50D01*
G01X7254000D01*
G02X7241000Y3654000I-50J12950D01*
G01Y3786000D01*
G02X7254000Y3799000I12950J50D01*
G01X7288000D01*
Y4094800D01*
X7322600Y4129400D01*
X7322800Y4131200D01*
G02X7369700Y4084300I43200J-3700D01*
G01X7367900Y4084100D01*
X7352000Y4068200D01*
Y4032500D01*
X7785700D01*
X7842500Y3975700D01*
Y2437800D01*
X7785700Y2381000D01*
X7776400D01*
X7775000Y2379800D01*
G02X7707200Y2430300I-27999J33173D01*
G03X7697800Y2444500I-9380J4002D01*
G01X5601300D01*
X5379300Y2222500D01*
X5399400Y2202400D01*
X5401200Y2202200D01*
G02X5354300Y2155300I-3700J-43200D01*
G01X5354100Y2157100D01*
X5193700Y2317500D01*
X3251800D01*
X2964400Y2030100D01*
X2964200Y2028300D01*
G02X2953000Y2002700I-43227J3662D01*
G01Y1544800D01*
X2896200Y1488000D01*
X2065300D01*
G37*
G36*
G01X2138700Y1274300D02*
G02X2099800Y1313200I-43200J-4300D01*
G01X2102200Y1312900D01*
X2267100Y1477800D01*
X5093700D01*
X5105900Y1465600D01*
X6462500D01*
G02Y1414400I35000J-25600D01*
G01X5125000D01*
G03X5116500Y1398600I7J-10190D01*
G02X4972000Y1409600I-76519J-50579D01*
G03X4964500Y1426600I-7556J6821D01*
G01X2288300D01*
X2138400Y1276700D01*
X2138700Y1274300D01*
G37*
G36*
G01X1005000Y1094600D02*
X935000D01*
G02Y1240400I0J72900D01*
G01X1005000D01*
G02Y1094600I0J-72900D01*
G37*
G36*
G01X635000D02*
X565000D01*
G02Y1240400I0J72900D01*
G01X635000D01*
G02Y1094600I0J-72900D01*
G37*
G36*
G01X5118800Y748400D02*
X4961200D01*
G02X4948400Y761200I50J12850D01*
G01Y918800D01*
G02X4961200Y931600I12850J-50D01*
G01X5118800D01*
G02X5131600Y918800I-50J-12850D01*
G01Y761200D01*
G02X5118800Y748400I-12850J50D01*
G37*
G36*
G01X8874800Y670400D02*
G02X8861800Y683200I-100J12900D01*
G01Y840800D01*
G02X8874800Y853600I12900J-100D01*
G01X9032200D01*
G02X9045200Y840800I100J-12900D01*
G01Y683200D01*
G02X9032200Y670400I-12900J100D01*
G01X8874800D01*
G37*
G54D19*
X7574000Y3720000D03*
X6854000D03*
X6134000D03*
X8082500Y3240000D03*
X3480000Y2520000D03*
X7602000Y720000D03*
X6840000D03*
G54D21*
X9360000Y3176000D03*
Y2922000D03*
Y2668000D03*
Y2414000D03*
X5040000Y1856000D03*
X8953500Y1778000D03*
X5040000Y1602000D03*
X8953500Y1524000D03*
Y1270000D03*
X5040000Y1094000D03*
X8953500Y1016000D03*
G54D20*
X9398000Y3873500D03*
X600000Y3840000D03*
X9398000Y635000D03*
X600000Y600000D03*
%LPD*%
G75*
G54D10*
X600000Y600000D03*
Y3840000D03*
X9398000Y635000D03*
Y3873500D03*
G54D11*
X970000Y1167500D03*
X600000D03*
X970000Y2192500D03*
X600000D03*
G54D12*
X2095500Y1270000D03*
X2036000Y1520000D03*
X2476500Y3111500D03*
X2667000Y3175000D03*
X2921000Y2032000D03*
X3683000Y2476500D03*
X5461000Y1714500D03*
X5397500Y2159000D03*
X6417000Y2600000D03*
X6159500Y1968500D03*
X6497500Y1440000D03*
X7747000Y2413000D03*
X7366000Y4127500D03*
G54D13*
X3480000Y2520000D03*
X4242000D03*
X6134000Y3720000D03*
X6840000Y720000D03*
X6854000Y3720000D03*
X7602000Y720000D03*
X7574000Y3720000D03*
X8082500Y3240000D03*
G54D14*
X5040000Y1094000D03*
Y1856000D03*
Y1602000D03*
Y1348000D03*
X8953500Y1016000D03*
Y1778000D03*
Y1524000D03*
Y1270000D03*
X9360000Y2414000D03*
Y2668000D03*
Y2922000D03*
Y3176000D03*
G54D15*
X5040000Y840000D03*
X8953500Y762000D03*
X9360000Y2160000D03*
G54D16*
X5880000Y3720000D03*
X6600000D03*
X7320000D03*
X8400000Y3240000D03*
G54D17*
G01X6497500Y1440000D02*
X5095300D01*
X5083100Y1452200D01*
X2277700D01*
X2095500Y1270000D01*
G01X6417000Y2600000D02*
X4291400D01*
X4279900Y2611500D01*
X3818000D01*
X3683000Y2476500D01*
G01X6159500Y1968500D02*
Y1841500D01*
X6032500Y1714500D01*
X5461000D01*
G54D18*
G01X2921000Y2032000D02*
Y1558100D01*
X2882900Y1520000D01*
X2036000D01*
G01X2667000Y3175000D02*
X2540000D01*
X2476500Y3111500D01*
G01X5334000Y2222500D02*
X5207000Y2349500D01*
X3238500D01*
X2921000Y2032000D01*
G01X5040000Y1856000D02*
X5136800D01*
G01X4943200D02*
X5040000D01*
G01D02*
Y1952800D01*
G01Y1759200D02*
Y1856000D01*
G01X7810500Y2476500D02*
X5588000D01*
X5334000Y2222500D01*
G01D02*
X5397500Y2159000D01*
G01X6134000Y3720000D02*
X6218100D01*
G01X6049900D02*
X6134000D01*
G01D02*
Y3804100D01*
G01Y3635900D02*
Y3720000D01*
G01X6854000D02*
X6938100D01*
G01X6769900D02*
X6854000D01*
G01D02*
Y3804100D01*
G01Y3635900D02*
Y3720000D01*
G01X7810500Y2476500D02*
Y2451100D01*
X7772400Y2413000D01*
X7747000D01*
G01X7320000Y4000500D02*
X7772400D01*
X7810500Y3962400D01*
Y2476500D01*
G01X7574000Y3720000D02*
X7658100D01*
G01X7489900D02*
X7574000D01*
G01D02*
Y3804100D01*
G01Y3635900D02*
Y3720000D01*
G01X7320000Y4000500D02*
Y3720000D01*
G01X7366000Y4127500D02*
X7320000Y4081500D01*
Y4000500D01*
G01X8953500Y1778000D02*
X9050300D01*
G01X8856700D02*
X8953500D01*
G01D02*
Y1874800D01*
G01Y1681200D02*
Y1778000D01*
G01X9360000Y3176000D02*
X9456800D01*
G01X9263200D02*
X9360000D01*
G01D02*
Y3272800D01*
G01Y3079200D02*
Y3176000D01*
M02*
