G04 ================== begin FILE IDENTIFICATION RECORD ==================*
G04 Layout Name:  AVRUSB500.brd*
G04 Film Name:    SilkT*
G04 File Format:  Gerber RS274X*
G04 File Origin:  Cadence Allegro 17.2-P019*
G04 Origin Date:  Mon Jul 29 16:52:09 2019*
G04 *
G04 Layer:  REF DES/SILKSCREEN_TOP*
G04 Layer:  PACKAGE GEOMETRY/SILKSCREEN_TOP*
G04 Layer:  BOARD GEOMETRY/SILKSCREEN_TOP*
G04 *
G04 Offset:    (0.000 0.000)*
G04 Mirror:    No*
G04 Mode:      Positive*
G04 Rotation:  0*
G04 FullContactRelief:  No*
G04 UndefLineWidth:     0.200*
G04 ================== end FILE IDENTIFICATION RECORD ====================*
%FSLAX55Y55*MOMM*%
%IR0*IPPOS*OFA0.00000B0.00000*MIA0B0*SFA1.00000B1.00000*%
%ADD10C,.2*%
%ADD11C,.254*%
G75*
%LPD*%
G75*
G54D10*
G01X743700Y1920000D02*
Y2110500D01*
X802900D01*
X821900Y2101000D01*
X833800Y2088300D01*
X838500Y2062900D01*
X833800Y2037500D01*
X819500Y2021600D01*
X802900Y2012100D01*
X743700D01*
G01X802900D02*
X838500Y1920000D01*
G01X929500Y1948600D02*
X943700Y1932700D01*
X960300Y1923200D01*
X981600Y1920000D01*
X1002900Y1926300D01*
X1019500Y1939000D01*
X1031400Y1961300D01*
X1033700Y1986700D01*
X1029000Y2012100D01*
X1017100Y2028000D01*
X1000600Y2040600D01*
X984000Y2043800D01*
X967400Y2040600D01*
X946100Y2028000D01*
X953200Y2110500D01*
X1017100D01*
G01X743700Y1200000D02*
Y1390500D01*
X802900D01*
X821900Y1381000D01*
X833800Y1368300D01*
X838500Y1342900D01*
X833800Y1317500D01*
X819500Y1301600D01*
X802900Y1292100D01*
X743700D01*
G01X802900D02*
X838500Y1200000D01*
G01X981600D02*
X998200Y1203200D01*
X1017100Y1212700D01*
X1029000Y1228600D01*
X1033700Y1250800D01*
X1029000Y1273000D01*
X1014800Y1292100D01*
X993400Y1301600D01*
X969800D01*
X955500Y1308000D01*
X943700Y1323800D01*
X938900Y1346000D01*
X946100Y1368300D01*
X962600Y1384200D01*
X981600Y1390500D01*
X1000600Y1384200D01*
X1017100Y1368300D01*
X1024300Y1346000D01*
X1019500Y1323800D01*
X1007700Y1308000D01*
X993400Y1301600D01*
X969800D01*
X948400Y1292100D01*
X934200Y1273000D01*
X929500Y1250800D01*
X934200Y1228600D01*
X946100Y1212700D01*
X965000Y1203200D01*
X981600Y1200000D01*
G01X863700Y2520000D02*
Y2710500D01*
X922900D01*
X941900Y2701000D01*
X953800Y2688300D01*
X958500Y2662900D01*
X953800Y2637500D01*
X939500Y2621600D01*
X922900Y2612100D01*
X863700D01*
G01X922900D02*
X958500Y2520000D01*
G01X1056600Y2599400D02*
X1073200Y2621600D01*
X1087400Y2634300D01*
X1106300Y2640600D01*
X1122900Y2634300D01*
X1134800Y2621600D01*
X1144300Y2602500D01*
X1146600Y2580300D01*
X1144300Y2561300D01*
X1134800Y2542200D01*
X1120600Y2526300D01*
X1104000Y2520000D01*
X1085000Y2526300D01*
X1068400Y2545400D01*
X1058900Y2574000D01*
X1056600Y2605700D01*
X1061300Y2647000D01*
X1068400Y2669200D01*
X1080300Y2691400D01*
X1096900Y2707300D01*
X1113400Y2710500D01*
X1130000Y2704200D01*
X1141900Y2688300D01*
G01X893300Y4078500D02*
X1083800D01*
Y4019300D01*
X1074300Y4000300D01*
X1061600Y3988400D01*
X1036200Y3983700D01*
X1010800Y3988400D01*
X994900Y4002700D01*
X985400Y4019300D01*
Y4078500D01*
G01Y4019300D02*
X893300Y3983700D01*
G01Y3840600D02*
X1083800D01*
X1045700Y3869000D01*
G01X893300D02*
Y3812200D01*
G01X2027900Y3979000D02*
X2037500Y3993200D01*
X2043800Y4009800D01*
Y4028700D01*
X2034300Y4050100D01*
X2018400Y4066600D01*
X1999300Y4078500D01*
X1967600Y4088000D01*
X1939000Y4090400D01*
X1910400Y4085600D01*
X1891400Y4078500D01*
X1872300Y4064300D01*
X1859600Y4047700D01*
X1853300Y4031100D01*
Y4014500D01*
X1859600Y3997900D01*
X1869200Y3983700D01*
X1881900Y3971800D01*
G01X1853300Y3840600D02*
X2043800D01*
X2005700Y3869000D01*
G01X1853300D02*
Y3812200D01*
G01X2287000Y2027100D02*
X2196000D01*
X2176900Y2020700D01*
X2164200Y2007800D01*
X2160000Y1991800D01*
X2164200Y1975700D01*
X2176900Y1962800D01*
X2196000Y1956400D01*
X2287000D01*
G01X2160000Y1862300D02*
X2287000D01*
X2261600Y1881600D01*
G01X2160000D02*
Y1843000D01*
G01X2183700Y2880000D02*
Y3070500D01*
X2242900D01*
X2261900Y3061000D01*
X2273800Y3048300D01*
X2278500Y3022900D01*
X2273800Y2997500D01*
X2259500Y2981600D01*
X2242900Y2972100D01*
X2183700D01*
G01X2242900D02*
X2278500Y2880000D01*
G01X2416900D02*
X2421600Y2921300D01*
X2428700Y2956200D01*
X2438200Y2988000D01*
X2450000Y3022900D01*
X2469000Y3070500D01*
X2374200D01*
G01X3263700Y600000D02*
Y790500D01*
X3322900D01*
X3341900Y781000D01*
X3353800Y768300D01*
X3358500Y742900D01*
X3353800Y717500D01*
X3339500Y701600D01*
X3322900Y692100D01*
X3263700D01*
G01X3322900D02*
X3358500Y600000D01*
G01X3501600D02*
Y790500D01*
X3473200Y752400D01*
G01Y600000D02*
X3530000D01*
G01X3720500D02*
Y790500D01*
X3632800Y654000D01*
X3751400D01*
G01X3263700Y960000D02*
Y1150500D01*
X3322900D01*
X3341900Y1141000D01*
X3353800Y1128300D01*
X3358500Y1102900D01*
X3353800Y1077500D01*
X3339500Y1061600D01*
X3322900Y1052100D01*
X3263700D01*
G01X3322900D02*
X3358500Y960000D01*
G01X3530000D02*
Y1150500D01*
X3442300Y1014000D01*
X3560900D01*
G01X3263700Y1920000D02*
Y2110500D01*
X3322900D01*
X3341900Y2101000D01*
X3353800Y2088300D01*
X3358500Y2062900D01*
X3353800Y2037500D01*
X3339500Y2021600D01*
X3322900Y2012100D01*
X3263700D01*
G01X3322900D02*
X3358500Y1920000D01*
G01X3456600Y2078800D02*
X3470800Y2097800D01*
X3487400Y2107300D01*
X3506300Y2110500D01*
X3530000Y2104200D01*
X3546600Y2088300D01*
X3551400Y2069200D01*
X3549000Y2050200D01*
X3539500Y2034300D01*
X3492100Y2002500D01*
X3470800Y1980300D01*
X3456600Y1948600D01*
X3451800Y1920000D01*
X3551400D01*
G01X3263700Y1440000D02*
Y1630500D01*
X3322900D01*
X3341900Y1621000D01*
X3353800Y1608300D01*
X3358500Y1582900D01*
X3353800Y1557500D01*
X3339500Y1541600D01*
X3322900Y1532100D01*
X3263700D01*
G01X3322900D02*
X3358500Y1440000D01*
G01X3449500Y1478100D02*
X3463700Y1455900D01*
X3482600Y1443200D01*
X3504000Y1440000D01*
X3522900Y1443200D01*
X3541900Y1459000D01*
X3553700Y1478100D01*
X3556100Y1497100D01*
X3551400Y1519400D01*
X3534800Y1535200D01*
X3518200Y1541600D01*
X3496900D01*
G01X3518200D02*
X3532400Y1551100D01*
X3544300Y1567000D01*
X3549000Y1586000D01*
X3544300Y1605100D01*
X3532400Y1621000D01*
X3511100Y1630500D01*
X3489800Y1627300D01*
X3468400Y1614600D01*
G01X3408200Y3000000D02*
Y3057100D01*
X3376100Y3127000D01*
G01X3440400D02*
X3408200Y3057100D01*
G01X3507200Y3105800D02*
X3516800Y3118500D01*
X3528100Y3124900D01*
X3541000Y3127000D01*
X3557100Y3122800D01*
X3568300Y3112200D01*
X3571500Y3099500D01*
X3569900Y3086800D01*
X3563500Y3076200D01*
X3531300Y3055000D01*
X3516800Y3040200D01*
X3507200Y3019000D01*
X3504000Y3000000D01*
X3571500D01*
G01X3227900Y3979000D02*
X3237500Y3993200D01*
X3243800Y4009800D01*
Y4028700D01*
X3234300Y4050100D01*
X3218400Y4066600D01*
X3199300Y4078500D01*
X3167600Y4088000D01*
X3139000Y4090400D01*
X3110400Y4085600D01*
X3091400Y4078500D01*
X3072300Y4064300D01*
X3059600Y4047700D01*
X3053300Y4031100D01*
Y4014500D01*
X3059600Y3997900D01*
X3069200Y3983700D01*
X3081900Y3971800D01*
G01X3212100Y3885600D02*
X3231100Y3871400D01*
X3240600Y3854800D01*
X3243800Y3835900D01*
X3237500Y3812200D01*
X3221600Y3795600D01*
X3202500Y3790800D01*
X3183500Y3793200D01*
X3167600Y3802700D01*
X3135800Y3850100D01*
X3113600Y3871400D01*
X3081900Y3885600D01*
X3053300Y3890400D01*
Y3790800D01*
G01X3947900Y3979000D02*
X3957500Y3993200D01*
X3963800Y4009800D01*
Y4028700D01*
X3954300Y4050100D01*
X3938400Y4066600D01*
X3919300Y4078500D01*
X3887600Y4088000D01*
X3859000Y4090400D01*
X3830400Y4085600D01*
X3811400Y4078500D01*
X3792300Y4064300D01*
X3779600Y4047700D01*
X3773300Y4031100D01*
Y4014500D01*
X3779600Y3997900D01*
X3789200Y3983700D01*
X3801900Y3971800D01*
G01X3811400Y3892700D02*
X3789200Y3878500D01*
X3776500Y3859600D01*
X3773300Y3838200D01*
X3776500Y3819300D01*
X3792300Y3800300D01*
X3811400Y3788500D01*
X3830400Y3786100D01*
X3852700Y3790800D01*
X3868500Y3807400D01*
X3874900Y3824000D01*
Y3845300D01*
G01Y3824000D02*
X3884400Y3809800D01*
X3900300Y3797900D01*
X3919300Y3793200D01*
X3938400Y3797900D01*
X3954300Y3809800D01*
X3963800Y3831100D01*
X3960600Y3852400D01*
X3947900Y3873800D01*
G01X5741000Y467900D02*
X5726800Y477500D01*
X5710200Y483800D01*
X5691300D01*
X5669900Y474300D01*
X5653400Y458400D01*
X5641500Y439300D01*
X5632000Y407600D01*
X5629600Y379000D01*
X5634400Y350400D01*
X5641500Y331400D01*
X5655700Y312300D01*
X5672300Y299600D01*
X5688900Y293300D01*
X5705500D01*
X5722100Y299600D01*
X5736300Y309200D01*
X5748200Y321900D01*
G01X5879400Y293300D02*
X5896000Y296500D01*
X5914900Y306000D01*
X5926800Y321900D01*
X5931500Y344100D01*
X5926800Y366300D01*
X5912600Y385400D01*
X5891200Y394900D01*
X5867600D01*
X5853300Y401300D01*
X5841500Y417100D01*
X5836700Y439300D01*
X5843900Y461600D01*
X5860400Y477500D01*
X5879400Y483800D01*
X5898400Y477500D01*
X5914900Y461600D01*
X5922100Y439300D01*
X5917300Y417100D01*
X5905500Y401300D01*
X5891200Y394900D01*
X5867600D01*
X5846200Y385400D01*
X5832000Y366300D01*
X5827300Y344100D01*
X5832000Y321900D01*
X5843900Y306000D01*
X5862800Y296500D01*
X5879400Y293300D01*
G01X5127100Y650900D02*
X5119100Y663600D01*
X5109400Y672100D01*
X5098200Y676300D01*
X5085300Y672100D01*
X5075600Y663600D01*
X5066000Y650900D01*
X5062800Y634000D01*
Y549300D01*
G01X4965500Y676300D02*
Y549300D01*
X4984800Y574700D01*
G01Y676300D02*
X4946200D01*
G01X5741000Y1187900D02*
X5726800Y1197500D01*
X5710200Y1203800D01*
X5691300D01*
X5669900Y1194300D01*
X5653400Y1178400D01*
X5641500Y1159300D01*
X5632000Y1127600D01*
X5629600Y1099000D01*
X5634400Y1070400D01*
X5641500Y1051400D01*
X5655700Y1032300D01*
X5672300Y1019600D01*
X5688900Y1013300D01*
X5705500D01*
X5722100Y1019600D01*
X5736300Y1029200D01*
X5748200Y1041900D01*
G01X5874700Y1013300D02*
X5879400Y1054600D01*
X5886500Y1089500D01*
X5896000Y1121300D01*
X5907800Y1156200D01*
X5926800Y1203800D01*
X5832000D01*
G01X5641500Y1733300D02*
Y1923800D01*
X5700700D01*
X5719700Y1914300D01*
X5731600Y1901600D01*
X5736300Y1876200D01*
X5731600Y1850800D01*
X5717300Y1834900D01*
X5700700Y1825400D01*
X5641500D01*
G01X5700700D02*
X5736300Y1733300D01*
G01X5839100Y1755500D02*
X5855700Y1739600D01*
X5874700Y1733300D01*
X5893600Y1739600D01*
X5910200Y1758700D01*
X5922100Y1787300D01*
X5926800Y1815800D01*
Y1850800D01*
X5922100Y1879300D01*
X5910200Y1904700D01*
X5896000Y1917500D01*
X5879400Y1923800D01*
X5860400Y1917500D01*
X5846200Y1904700D01*
X5836700Y1885700D01*
X5832000Y1860300D01*
X5836700Y1838100D01*
X5848600Y1815800D01*
X5862800Y1803100D01*
X5879400Y1800000D01*
X5898400Y1806300D01*
X5912600Y1822200D01*
X5926800Y1850800D01*
G01X5501000Y2747900D02*
X5486800Y2757500D01*
X5470200Y2763800D01*
X5451300D01*
X5429900Y2754300D01*
X5413400Y2738400D01*
X5401500Y2719300D01*
X5392000Y2687600D01*
X5389600Y2659000D01*
X5394400Y2630400D01*
X5401500Y2611400D01*
X5415700Y2592300D01*
X5432300Y2579600D01*
X5448900Y2573300D01*
X5465500D01*
X5482100Y2579600D01*
X5496300Y2589200D01*
X5508200Y2601900D01*
G01X5639400Y2573300D02*
Y2763800D01*
X5611000Y2725700D01*
G01Y2573300D02*
X5667800D01*
G01X5829900Y2763800D02*
X5810900Y2757500D01*
X5796700Y2741600D01*
X5787200Y2722500D01*
X5780100Y2697100D01*
X5777800Y2668500D01*
X5780100Y2640000D01*
X5787200Y2614600D01*
X5796700Y2595500D01*
X5810900Y2579600D01*
X5829900Y2573300D01*
X5848900Y2579600D01*
X5863100Y2595500D01*
X5872600Y2614600D01*
X5879700Y2640000D01*
X5882000Y2668500D01*
X5879700Y2697100D01*
X5872600Y2722500D01*
X5863100Y2741600D01*
X5848900Y2757500D01*
X5829900Y2763800D01*
G01X5831400Y4133300D02*
X5821800Y4139700D01*
X5810500Y4143900D01*
X5797700D01*
X5783200Y4137500D01*
X5771900Y4127000D01*
X5763900Y4114300D01*
X5757400Y4093100D01*
X5755800Y4074000D01*
X5759100Y4055000D01*
X5763900Y4042300D01*
X5773500Y4029600D01*
X5784800Y4021100D01*
X5796000Y4016900D01*
X5807300D01*
X5818600Y4021100D01*
X5828200Y4027500D01*
X5836300Y4035900D01*
G01X5895000Y4069800D02*
X5906200Y4084600D01*
X5915900Y4093100D01*
X5928800Y4097300D01*
X5940000Y4093100D01*
X5948100Y4084600D01*
X5954500Y4071900D01*
X5956100Y4057100D01*
X5954500Y4044400D01*
X5948100Y4031700D01*
X5938400Y4021100D01*
X5927200Y4016900D01*
X5914300Y4021100D01*
X5903000Y4033800D01*
X5896600Y4052900D01*
X5895000Y4074000D01*
X5898200Y4101600D01*
X5903000Y4116400D01*
X5911100Y4131200D01*
X5922300Y4141800D01*
X5933600Y4143900D01*
X5944900Y4139700D01*
X5952900Y4129100D01*
G01X6768200Y1080000D02*
Y1137100D01*
X6736100Y1207000D01*
G01X6800400D02*
X6768200Y1137100D01*
G01X6897700Y1080000D02*
Y1207000D01*
X6878400Y1181600D01*
G01Y1080000D02*
X6917000D01*
G01X6843200Y1974600D02*
X6829000Y1984200D01*
X6812400Y1990500D01*
X6793500D01*
X6772100Y1981000D01*
X6755600Y1965100D01*
X6743700Y1946000D01*
X6734200Y1914300D01*
X6731800Y1885700D01*
X6736600Y1857100D01*
X6743700Y1838100D01*
X6757900Y1819000D01*
X6774500Y1806300D01*
X6791100Y1800000D01*
X6807700D01*
X6824300Y1806300D01*
X6838500Y1815900D01*
X6850400Y1828600D01*
G01X7010000Y1800000D02*
Y1990500D01*
X6922300Y1854000D01*
X7040900D01*
G01X6806600Y3377100D02*
Y3338500D01*
G01Y3357800D02*
X6679600D01*
G01Y3377100D02*
Y3338500D01*
G01X6796000Y3192900D02*
X6802400Y3202500D01*
X6806600Y3213800D01*
Y3226600D01*
X6800200Y3241100D01*
X6789700Y3252400D01*
X6777000Y3260400D01*
X6755800Y3266900D01*
X6736700Y3268500D01*
X6717700Y3265200D01*
X6705000Y3260400D01*
X6692300Y3250800D01*
X6683800Y3239500D01*
X6679600Y3228300D01*
Y3217000D01*
X6683800Y3205700D01*
X6690200Y3196100D01*
X6698600Y3188000D01*
G01X6679600Y3098800D02*
X6806600D01*
X6781200Y3118100D01*
G01X6679600D02*
Y3079500D01*
G01X6551400Y4133300D02*
X6541800Y4139700D01*
X6530500Y4143900D01*
X6517700D01*
X6503200Y4137500D01*
X6491900Y4127000D01*
X6483900Y4114300D01*
X6477400Y4093100D01*
X6475800Y4074000D01*
X6479100Y4055000D01*
X6483900Y4042300D01*
X6493500Y4029600D01*
X6504800Y4021100D01*
X6516000Y4016900D01*
X6527300D01*
X6538600Y4021100D01*
X6548200Y4027500D01*
X6556300Y4035900D01*
G01X6610200D02*
X6619800Y4025400D01*
X6631100Y4019000D01*
X6645500Y4016900D01*
X6660000Y4021100D01*
X6671300Y4029600D01*
X6679300Y4044400D01*
X6680900Y4061300D01*
X6677700Y4078300D01*
X6669700Y4088900D01*
X6658400Y4097300D01*
X6647200Y4099400D01*
X6635900Y4097300D01*
X6621400Y4088900D01*
X6626200Y4143900D01*
X6669700D01*
G01X7271400Y4133300D02*
X7261800Y4139700D01*
X7250500Y4143900D01*
X7237700D01*
X7223200Y4137500D01*
X7211900Y4127000D01*
X7203900Y4114300D01*
X7197400Y4093100D01*
X7195800Y4074000D01*
X7199100Y4055000D01*
X7203900Y4042300D01*
X7213500Y4029600D01*
X7224800Y4021100D01*
X7236000Y4016900D01*
X7247300D01*
X7258600Y4021100D01*
X7268200Y4027500D01*
X7276300Y4035900D01*
G01X7338200Y4031700D02*
X7349500Y4021100D01*
X7362300Y4016900D01*
X7375200Y4021100D01*
X7386500Y4033800D01*
X7394500Y4052900D01*
X7397700Y4071900D01*
Y4095200D01*
X7394500Y4114300D01*
X7386500Y4131200D01*
X7376800Y4139700D01*
X7365500Y4143900D01*
X7352700Y4139700D01*
X7343000Y4131200D01*
X7336600Y4118500D01*
X7333400Y4101600D01*
X7336600Y4086800D01*
X7344600Y4071900D01*
X7354300Y4063500D01*
X7365500Y4061300D01*
X7378400Y4065600D01*
X7388100Y4076200D01*
X7397700Y4095200D01*
G01X7463700Y1080000D02*
Y1270500D01*
X7522900D01*
X7541900Y1261000D01*
X7553800Y1248300D01*
X7558500Y1222900D01*
X7553800Y1197500D01*
X7539500Y1181600D01*
X7522900Y1172100D01*
X7463700D01*
G01X7522900D02*
X7558500Y1080000D01*
G01X7701600D02*
Y1270500D01*
X7673200Y1232400D01*
G01Y1080000D02*
X7730000D01*
G01X7840000Y1108600D02*
X7854200Y1092700D01*
X7870800Y1083200D01*
X7892100Y1080000D01*
X7913400Y1086300D01*
X7930000Y1099000D01*
X7941900Y1121300D01*
X7944200Y1146700D01*
X7939500Y1172100D01*
X7927600Y1188000D01*
X7911100Y1200600D01*
X7894500Y1203800D01*
X7877900Y1200600D01*
X7856600Y1188000D01*
X7863700Y1270500D01*
X7927600D01*
G01X7343700Y1680000D02*
Y1870500D01*
X7402900D01*
X7421900Y1861000D01*
X7433800Y1848300D01*
X7438500Y1822900D01*
X7433800Y1797500D01*
X7419500Y1781600D01*
X7402900Y1772100D01*
X7343700D01*
G01X7402900D02*
X7438500Y1680000D01*
G01X7581600D02*
Y1870500D01*
X7553200Y1832400D01*
G01Y1680000D02*
X7610000D01*
G01X7720000Y1718100D02*
X7734200Y1695900D01*
X7753100Y1683200D01*
X7774500Y1680000D01*
X7793400Y1683200D01*
X7812400Y1699000D01*
X7824200Y1718100D01*
X7826600Y1737100D01*
X7821900Y1759400D01*
X7805300Y1775200D01*
X7788700Y1781600D01*
X7767400D01*
G01X7788700D02*
X7802900Y1791100D01*
X7814800Y1807000D01*
X7819500Y1826000D01*
X7814800Y1845100D01*
X7802900Y1861000D01*
X7781600Y1870500D01*
X7760300Y1867300D01*
X7738900Y1854600D01*
G01X7343700Y2520000D02*
Y2710500D01*
X7402900D01*
X7421900Y2701000D01*
X7433800Y2688300D01*
X7438500Y2662900D01*
X7433800Y2637500D01*
X7419500Y2621600D01*
X7402900Y2612100D01*
X7343700D01*
G01X7402900D02*
X7438500Y2520000D01*
G01X7581600D02*
Y2710500D01*
X7553200Y2672400D01*
G01Y2520000D02*
X7610000D01*
G01X7772100D02*
Y2710500D01*
X7743700Y2672400D01*
G01Y2520000D02*
X7800500D01*
G01X7343700Y2040000D02*
Y2230500D01*
X7402900D01*
X7421900Y2221000D01*
X7433800Y2208300D01*
X7438500Y2182900D01*
X7433800Y2157500D01*
X7419500Y2141600D01*
X7402900Y2132100D01*
X7343700D01*
G01X7402900D02*
X7438500Y2040000D01*
G01X7581600D02*
Y2230500D01*
X7553200Y2192400D01*
G01Y2040000D02*
X7610000D01*
G01X7727100Y2198800D02*
X7741300Y2217800D01*
X7757900Y2227300D01*
X7776800Y2230500D01*
X7800500Y2224200D01*
X7817100Y2208300D01*
X7821900Y2189200D01*
X7819500Y2170200D01*
X7810000Y2154300D01*
X7762600Y2122500D01*
X7741300Y2100300D01*
X7727100Y2068600D01*
X7722300Y2040000D01*
X7821900D01*
G01X8652900Y3240000D02*
Y3367000D01*
X8685000D01*
X8697900Y3360600D01*
X8707600Y3352200D01*
X8715600Y3339500D01*
X8722000Y3324700D01*
X8723600Y3303500D01*
X8722000Y3282300D01*
X8715600Y3267500D01*
X8707600Y3254800D01*
X8697900Y3246300D01*
X8685000Y3240000D01*
X8652900D01*
G01X8817700D02*
Y3367000D01*
X8798400Y3341600D01*
G01Y3240000D02*
X8837000D01*
G01X8663700Y3480000D02*
Y3670500D01*
X8722900D01*
X8741900Y3661000D01*
X8753800Y3648300D01*
X8758500Y3622900D01*
X8753800Y3597500D01*
X8739500Y3581600D01*
X8722900Y3572100D01*
X8663700D01*
G01X8722900D02*
X8758500Y3480000D01*
G01X8901600D02*
Y3670500D01*
X8873200Y3632400D01*
G01Y3480000D02*
X8930000D01*
G01X9092100Y3670500D02*
X9073100Y3664200D01*
X9058900Y3648300D01*
X9049400Y3629200D01*
X9042300Y3603800D01*
X9040000Y3575200D01*
X9042300Y3546700D01*
X9049400Y3521300D01*
X9058900Y3502200D01*
X9073100Y3486300D01*
X9092100Y3480000D01*
X9111100Y3486300D01*
X9125300Y3502200D01*
X9134800Y3521300D01*
X9141900Y3546700D01*
X9144200Y3575200D01*
X9141900Y3603800D01*
X9134800Y3629200D01*
X9125300Y3648300D01*
X9111100Y3664200D01*
X9092100Y3670500D01*
G01X8896100Y2065400D02*
X8904100Y2052700D01*
X8913800Y2044200D01*
X8925000Y2040000D01*
X8937900Y2044200D01*
X8947600Y2052700D01*
X8957200Y2065400D01*
X8960400Y2082300D01*
Y2167000D01*
G01X9077100Y2040000D02*
Y2167000D01*
X9017500Y2076000D01*
X9098000D01*
G01X9256100Y3385400D02*
X9264100Y3372700D01*
X9273800Y3364200D01*
X9285000Y3360000D01*
X9297900Y3364200D01*
X9307600Y3372700D01*
X9317200Y3385400D01*
X9320400Y3402300D01*
Y3487000D01*
G01X9382400Y3385400D02*
X9392000Y3370600D01*
X9404900Y3362100D01*
X9419400Y3360000D01*
X9432200Y3362100D01*
X9445100Y3372700D01*
X9453100Y3385400D01*
X9454700Y3398100D01*
X9451500Y3412900D01*
X9440300Y3423500D01*
X9429000Y3427700D01*
X9414500D01*
G01X9429000D02*
X9438700Y3434100D01*
X9446700Y3444700D01*
X9449900Y3457400D01*
X9446700Y3470100D01*
X9438700Y3480600D01*
X9424200Y3487000D01*
X9409700Y3484900D01*
X9395200Y3476400D01*
G54D11*
G01X1185400Y996800D02*
Y1403200D01*
G01X1881300Y996800D02*
X1185400D01*
G01X1198900Y1638300D02*
Y2044700D01*
G01X1894800Y1638300D02*
X1198900D01*
G01X1185400Y1403200D02*
X1881300D01*
G01X1198900Y2044700D02*
X1894800D01*
G01X1185400Y2196800D02*
Y2603200D01*
G01D02*
X1881300D01*
G01Y2196800D02*
X1185400D01*
G01X1116800Y4094600D02*
X1523200D01*
G01D02*
Y3398700D01*
G01D02*
X1116800D01*
G01D02*
Y4094600D01*
G01X1881300Y1403200D02*
Y996800D01*
G01X2212700Y1749300D02*
X2355400D01*
G01X1894800Y2044700D02*
Y1638300D01*
G01X1881300Y2603200D02*
Y2196800D01*
G01X2145400Y2316800D02*
Y2723200D01*
G01X2841300Y2316800D02*
X2145400D01*
G01Y2723200D02*
X2841300D01*
G01X2076800Y4094600D02*
X2483200D01*
G01D02*
Y3398700D01*
G01D02*
X2076800D01*
G01D02*
Y4094600D01*
G01X2841300Y2723200D02*
Y2316800D01*
G01X4432500Y2266000D02*
X3289500D01*
G01D02*
Y2774000D01*
G01D02*
X4432500D01*
G01X3276800Y4094600D02*
X3683200D01*
G01Y3398700D02*
X3276800D01*
G01D02*
Y4094600D01*
G01X3705400Y396800D02*
Y803200D01*
G01D02*
X4401300D01*
G01Y396800D02*
X3705400D01*
G01Y876800D02*
Y1283200D01*
G01X4401300Y876800D02*
X3705400D01*
G01Y1836800D02*
Y2243200D01*
G01X4401300Y1836800D02*
X3705400D01*
G01Y1356800D02*
Y1763200D01*
G01D02*
X4401300D01*
G01Y1356800D02*
X3705400D01*
G01Y1283200D02*
X4401300D01*
G01X3705400Y2243200D02*
X4401300D01*
G01X3996800Y4094600D02*
X4403200D01*
G01Y3398700D02*
X3996800D01*
G01D02*
Y4094600D01*
G01X3683200D02*
Y3398700D01*
G01X4913000Y700300D02*
Y1995700D01*
G01X5167000Y700300D02*
X4913000D01*
G01X4401300Y803200D02*
Y396800D01*
G01Y1283200D02*
Y876800D01*
G01Y2243200D02*
Y1836800D01*
G01Y1763200D02*
Y1356800D01*
G01X4913000Y1995700D02*
X5167000D01*
G01X4432500Y2774000D02*
Y2266000D01*
G01X4403200Y4094600D02*
Y3398700D01*
G01X5167000Y840000D02*
Y700300D01*
G01Y1094000D02*
Y840000D01*
G01Y1348000D02*
Y1094000D01*
G01X5625400Y516800D02*
Y923200D01*
G01D02*
X6321300D01*
G01Y516800D02*
X5625400D01*
G01X5167000Y1602000D02*
Y1348000D01*
G01Y1856000D02*
Y1602000D01*
G01Y1995700D02*
Y1856000D01*
G01X5625400Y1236800D02*
Y1643200D01*
G01D02*
X6321300D01*
G01Y1236800D02*
X5625400D01*
G01Y1956800D02*
Y2363200D01*
G01D02*
X6321300D01*
G01Y1956800D02*
X5625400D01*
G01X5385400Y2796800D02*
Y3203200D01*
G01D02*
X6081300D01*
G01Y2796800D02*
X5385400D01*
G01X6321300Y923200D02*
Y516800D01*
G01Y1643200D02*
Y1236800D01*
G01Y2363200D02*
Y1956800D01*
G01X6081300Y3203200D02*
Y2796800D01*
G01X7012700Y3720000D02*
G02I-285700J0D01*
G01X6292700D02*
G02I-285700J0D01*
G01X7792500Y466000D02*
X6649500D01*
G01D02*
Y974000D01*
G01D02*
X7792500D01*
G01X6705400Y1236800D02*
Y1643200D01*
G01D02*
X7401300D01*
G01Y1236800D02*
X6705400D01*
G01X6652700Y2829300D02*
X6795400D01*
G01X7732700Y3720000D02*
G02I-285700J0D01*
G01X7905400Y996800D02*
Y1403200D01*
G01X8601300Y996800D02*
X7905400D01*
G01X7792500Y974000D02*
Y466000D01*
G01X7401300Y1643200D02*
Y1236800D01*
G01X7905400Y1476800D02*
Y1883200D01*
G01X8601300Y1476800D02*
X7905400D01*
G01Y1403200D02*
X8601300D01*
G01X7905400Y2436800D02*
Y2843200D01*
G01X8601300Y2436800D02*
X7905400D01*
G01Y1883200D02*
X8601300D01*
G01X7929900Y1955800D02*
Y2362200D01*
G01D02*
X8625800D01*
G01Y1955800D02*
X7929900D01*
G01X7905400Y2843200D02*
X8601300D01*
G01X8558700Y3240000D02*
G02X8241300Y2922500I-317400J-100D01*
G02Y3557500I0J317500D01*
G02X8558700Y3240000I0J-317400D01*
G01X8601300Y1403200D02*
Y996800D01*
G01Y1883200D02*
Y1476800D01*
G01Y2843200D02*
Y2436800D01*
G01X8625800Y2362200D02*
Y1955800D01*
G01X8961100Y3733800D02*
X8265200D01*
G01D02*
Y4140200D01*
G01D02*
X8961100D01*
G01X8826500Y622300D02*
Y1917700D01*
G01X9080500Y622300D02*
X8826500D01*
G01X9080500Y762000D02*
Y622300D01*
G01Y1016000D02*
Y762000D01*
G01Y1270000D02*
Y1016000D01*
G01Y1524000D02*
Y1270000D01*
G01Y1778000D02*
Y1524000D01*
G01Y1917700D02*
Y1778000D01*
G01X8826500Y1917700D02*
X9080500D01*
G01X9233000Y2020300D02*
Y3315700D01*
G01X9487000Y2020300D02*
X9233000D01*
G01X9487000Y2160000D02*
Y2020300D01*
G01Y2414000D02*
Y2160000D01*
G01Y2668000D02*
Y2414000D01*
G01X9233000Y3315700D02*
X9487000D01*
G01Y2922000D02*
Y2668000D01*
G01Y3176000D02*
Y2922000D01*
G01Y3315700D02*
Y3176000D01*
G01X8961100Y4140200D02*
Y3733800D01*
M02*
