G04 ================== begin FILE IDENTIFICATION RECORD ==================*
G04 Layout Name:  AVRUSB500.brd*
G04 Film Name:    skikb*
G04 File Format:  Gerber RS274X*
G04 File Origin:  Cadence Allegro 17.2-P019*
G04 Origin Date:  Mon Jul 29 16:52:09 2019*
G04 *
G04 Layer:  REF DES/SILKSCREEN_BOTTOM*
G04 Layer:  PACKAGE GEOMETRY/SILKSCREEN_TOP*
G04 Layer:  PACKAGE GEOMETRY/SILKSCREEN_BOTTOM*
G04 Layer:  BOARD GEOMETRY/SILKSCREEN_TOP*
G04 Layer:  BOARD GEOMETRY/SILKSCREEN_BOTTOM*
G04 *
G04 Offset:    (0.000 0.000)*
G04 Mirror:    No*
G04 Mode:      Positive*
G04 Rotation:  0*
G04 FullContactRelief:  No*
G04 UndefLineWidth:     0.200*
G04 ================== end FILE IDENTIFICATION RECORD ====================*
%FSLAX55Y55*MOMM*%
%IR0*IPPOS*OFA0.00000B0.00000*MIA0B0*SFA1.00000B1.00000*%
%ADD10C,.2*%
%ADD11C,.254*%
G75*
%LPD*%
G75*
G54D10*
G01X752500Y3183500D02*
Y3120000D01*
G01Y3129500D02*
X749800Y3124200D01*
X745700Y3121100D01*
X741000Y3120000D01*
X735600Y3122100D01*
X731500Y3127400D01*
X728800Y3133800D01*
X728100Y3141200D01*
X728800Y3148600D01*
X731500Y3154900D01*
X735600Y3160200D01*
X741000Y3162300D01*
X745700Y3161300D01*
X749100Y3159200D01*
X752500Y3154900D01*
G01X796100Y3120000D02*
X792000Y3121100D01*
X788000Y3125300D01*
X785300Y3132700D01*
X783900Y3141200D01*
X785300Y3149600D01*
X788000Y3157000D01*
X792000Y3161300D01*
X796100Y3162300D01*
X800200Y3161300D01*
X804200Y3157000D01*
X806900Y3149600D01*
X807600Y3141200D01*
X806900Y3132700D01*
X804200Y3125300D01*
X800200Y3121100D01*
X796100Y3120000D01*
G01X840400D02*
Y3162300D01*
G01Y3151700D02*
X843100Y3157000D01*
X847200Y3161300D01*
X852600Y3162300D01*
X857300Y3161300D01*
X861400Y3157000D01*
X863400Y3149600D01*
Y3120000D01*
G01X898200Y3104100D02*
X903000Y3099900D01*
X908400Y3098800D01*
X913100Y3099900D01*
X917200Y3105200D01*
X919900Y3112600D01*
Y3162300D01*
G01Y3153900D02*
X917200Y3158100D01*
X913100Y3161300D01*
X908400Y3162300D01*
X903000Y3160200D01*
X899600Y3156000D01*
X896900Y3148600D01*
X895500Y3141200D01*
X896200Y3134800D01*
X898900Y3127400D01*
X903000Y3122100D01*
X908400Y3120000D01*
X912400Y3121100D01*
X917200Y3125300D01*
X919900Y3129500D01*
G01X1017900Y3120000D02*
X1019300Y3133800D01*
X1021300Y3145400D01*
X1024000Y3156000D01*
X1027400Y3167600D01*
X1032800Y3183500D01*
X1005800D01*
G01X1062200Y3172900D02*
X1066300Y3179300D01*
X1071000Y3182400D01*
X1076500Y3183500D01*
X1083200Y3181400D01*
X1088000Y3176100D01*
X1089300Y3169700D01*
X1088600Y3163400D01*
X1085900Y3158100D01*
X1072400Y3147500D01*
X1066300Y3140100D01*
X1062200Y3129500D01*
X1060900Y3120000D01*
X1089300D01*
G01X1119400Y3127400D02*
X1124100Y3122100D01*
X1129500Y3120000D01*
X1135000Y3122100D01*
X1139700Y3128500D01*
X1143100Y3138000D01*
X1144400Y3147500D01*
Y3159200D01*
X1143100Y3168700D01*
X1139700Y3177100D01*
X1135600Y3181400D01*
X1130900Y3183500D01*
X1125500Y3181400D01*
X1121400Y3177100D01*
X1118700Y3170800D01*
X1117400Y3162300D01*
X1118700Y3154900D01*
X1122100Y3147500D01*
X1126200Y3143300D01*
X1130900Y3142200D01*
X1136300Y3144300D01*
X1140400Y3149600D01*
X1144400Y3159200D01*
G01X1712500Y663500D02*
Y600000D01*
G01Y609500D02*
X1709800Y604200D01*
X1705700Y601100D01*
X1701000Y600000D01*
X1695600Y602100D01*
X1691500Y607400D01*
X1688800Y613800D01*
X1688100Y621200D01*
X1688800Y628600D01*
X1691500Y634900D01*
X1695600Y640200D01*
X1701000Y642300D01*
X1705700Y641300D01*
X1709100Y639200D01*
X1712500Y634900D01*
G01X1756100Y600000D02*
X1752000Y601100D01*
X1748000Y605300D01*
X1745300Y612700D01*
X1743900Y621200D01*
X1745300Y629600D01*
X1748000Y637000D01*
X1752000Y641300D01*
X1756100Y642300D01*
X1760200Y641300D01*
X1764200Y637000D01*
X1766900Y629600D01*
X1767600Y621200D01*
X1766900Y612700D01*
X1764200Y605300D01*
X1760200Y601100D01*
X1756100Y600000D01*
G01X1800400D02*
Y642300D01*
G01Y631700D02*
X1803100Y637000D01*
X1807200Y641300D01*
X1812600Y642300D01*
X1817300Y641300D01*
X1821400Y637000D01*
X1823400Y629600D01*
Y600000D01*
G01X1858200Y584100D02*
X1863000Y579900D01*
X1868400Y578800D01*
X1873100Y579900D01*
X1877200Y585200D01*
X1879900Y592600D01*
Y642300D01*
G01Y633900D02*
X1877200Y638100D01*
X1873100Y641300D01*
X1868400Y642300D01*
X1863000Y640200D01*
X1859600Y636000D01*
X1856900Y628600D01*
X1855500Y621200D01*
X1856200Y614800D01*
X1858900Y607400D01*
X1863000Y602100D01*
X1868400Y600000D01*
X1872400Y601100D01*
X1877200Y605300D01*
X1879900Y609500D01*
G01X1969200Y607400D02*
X1972500Y603200D01*
X1977300Y600000D01*
X1981300D01*
X1985400Y602100D01*
X1988100Y605300D01*
X1989400Y609500D01*
X1988800Y615900D01*
X1986100Y619000D01*
X1973900Y625400D01*
X1971200Y632800D01*
X1972500Y638100D01*
X1975200Y641300D01*
X1979300Y642300D01*
X1983400Y641300D01*
X1987400Y638100D01*
G01X2022900Y600000D02*
Y663500D01*
G01Y631700D02*
X2026300Y638100D01*
X2030400Y641300D01*
X2034400Y642300D01*
X2040500Y640200D01*
X2044600Y636000D01*
X2047300Y628600D01*
Y620100D01*
X2045900Y611600D01*
X2043200Y605300D01*
X2038500Y601100D01*
X2034400Y600000D01*
X2030400Y601100D01*
X2026300Y604200D01*
X2022900Y609500D01*
G54D11*
G01X1185400Y996800D02*
Y1403200D01*
G01X1881300Y996800D02*
X1185400D01*
G01X1198900Y1638300D02*
Y2044700D01*
G01X1894800Y1638300D02*
X1198900D01*
G01X1185400Y1403200D02*
X1881300D01*
G01X1198900Y2044700D02*
X1894800D01*
G01X1185400Y2196800D02*
Y2603200D01*
G01D02*
X1881300D01*
G01Y2196800D02*
X1185400D01*
G01X1116800Y4094600D02*
X1523200D01*
G01D02*
Y3398700D01*
G01D02*
X1116800D01*
G01D02*
Y4094600D01*
G01X1881300Y1403200D02*
Y996800D01*
G01X2212700Y1749300D02*
X2355400D01*
G01X1894800Y2044700D02*
Y1638300D01*
G01X1881300Y2603200D02*
Y2196800D01*
G01X2145400Y2316800D02*
Y2723200D01*
G01X2841300Y2316800D02*
X2145400D01*
G01Y2723200D02*
X2841300D01*
G01X2076800Y4094600D02*
X2483200D01*
G01D02*
Y3398700D01*
G01D02*
X2076800D01*
G01D02*
Y4094600D01*
G01X2841300Y2723200D02*
Y2316800D01*
G01X4432500Y2266000D02*
X3289500D01*
G01D02*
Y2774000D01*
G01D02*
X4432500D01*
G01X3276800Y4094600D02*
X3683200D01*
G01Y3398700D02*
X3276800D01*
G01D02*
Y4094600D01*
G01X3705400Y396800D02*
Y803200D01*
G01D02*
X4401300D01*
G01Y396800D02*
X3705400D01*
G01Y876800D02*
Y1283200D01*
G01X4401300Y876800D02*
X3705400D01*
G01Y1836800D02*
Y2243200D01*
G01X4401300Y1836800D02*
X3705400D01*
G01Y1356800D02*
Y1763200D01*
G01D02*
X4401300D01*
G01Y1356800D02*
X3705400D01*
G01Y1283200D02*
X4401300D01*
G01X3705400Y2243200D02*
X4401300D01*
G01X3996800Y4094600D02*
X4403200D01*
G01Y3398700D02*
X3996800D01*
G01D02*
Y4094600D01*
G01X3683200D02*
Y3398700D01*
G01X4913000Y700300D02*
Y1995700D01*
G01X5167000Y700300D02*
X4913000D01*
G01X4401300Y803200D02*
Y396800D01*
G01Y1283200D02*
Y876800D01*
G01Y2243200D02*
Y1836800D01*
G01Y1763200D02*
Y1356800D01*
G01X4913000Y1995700D02*
X5167000D01*
G01X4432500Y2774000D02*
Y2266000D01*
G01X4403200Y4094600D02*
Y3398700D01*
G01X5167000Y840000D02*
Y700300D01*
G01Y1094000D02*
Y840000D01*
G01Y1348000D02*
Y1094000D01*
G01X5625400Y516800D02*
Y923200D01*
G01D02*
X6321300D01*
G01Y516800D02*
X5625400D01*
G01X5167000Y1602000D02*
Y1348000D01*
G01Y1856000D02*
Y1602000D01*
G01Y1995700D02*
Y1856000D01*
G01X5625400Y1236800D02*
Y1643200D01*
G01D02*
X6321300D01*
G01Y1236800D02*
X5625400D01*
G01Y1956800D02*
Y2363200D01*
G01D02*
X6321300D01*
G01Y1956800D02*
X5625400D01*
G01X5385400Y2796800D02*
Y3203200D01*
G01D02*
X6081300D01*
G01Y2796800D02*
X5385400D01*
G01X6321300Y923200D02*
Y516800D01*
G01Y1643200D02*
Y1236800D01*
G01Y2363200D02*
Y1956800D01*
G01X6081300Y3203200D02*
Y2796800D01*
G01X7012700Y3720000D02*
G02I-285700J0D01*
G01X6292700D02*
G02I-285700J0D01*
G01X7792500Y466000D02*
X6649500D01*
G01D02*
Y974000D01*
G01D02*
X7792500D01*
G01X6705400Y1236800D02*
Y1643200D01*
G01D02*
X7401300D01*
G01Y1236800D02*
X6705400D01*
G01X6652700Y2829300D02*
X6795400D01*
G01X7732700Y3720000D02*
G02I-285700J0D01*
G01X7905400Y996800D02*
Y1403200D01*
G01X8601300Y996800D02*
X7905400D01*
G01X7792500Y974000D02*
Y466000D01*
G01X7401300Y1643200D02*
Y1236800D01*
G01X7905400Y1476800D02*
Y1883200D01*
G01X8601300Y1476800D02*
X7905400D01*
G01Y1403200D02*
X8601300D01*
G01X7905400Y2436800D02*
Y2843200D01*
G01X8601300Y2436800D02*
X7905400D01*
G01Y1883200D02*
X8601300D01*
G01X7929900Y1955800D02*
Y2362200D01*
G01D02*
X8625800D01*
G01Y1955800D02*
X7929900D01*
G01X7905400Y2843200D02*
X8601300D01*
G01X8558700Y3240000D02*
G02X8241300Y2922500I-317400J-100D01*
G02Y3557500I0J317500D01*
G02X8558700Y3240000I0J-317400D01*
G01X8601300Y1403200D02*
Y996800D01*
G01Y1883200D02*
Y1476800D01*
G01Y2843200D02*
Y2436800D01*
G01X8625800Y2362200D02*
Y1955800D01*
G01X8961100Y3733800D02*
X8265200D01*
G01D02*
Y4140200D01*
G01D02*
X8961100D01*
G01X8826500Y622300D02*
Y1917700D01*
G01X9080500Y622300D02*
X8826500D01*
G01X9080500Y762000D02*
Y622300D01*
G01Y1016000D02*
Y762000D01*
G01Y1270000D02*
Y1016000D01*
G01Y1524000D02*
Y1270000D01*
G01Y1778000D02*
Y1524000D01*
G01Y1917700D02*
Y1778000D01*
G01X8826500Y1917700D02*
X9080500D01*
G01X9233000Y2020300D02*
Y3315700D01*
G01X9487000Y2020300D02*
X9233000D01*
G01X9487000Y2160000D02*
Y2020300D01*
G01Y2414000D02*
Y2160000D01*
G01Y2668000D02*
Y2414000D01*
G01X9233000Y3315700D02*
X9487000D01*
G01Y2922000D02*
Y2668000D01*
G01Y3176000D02*
Y2922000D01*
G01Y3315700D02*
Y3176000D01*
G01X8961100Y4140200D02*
Y3733800D01*
M02*
