G04 ================== begin FILE IDENTIFICATION RECORD ==================*
G04 Layout Name:  AVRUSB500.brd*
G04 Film Name:    TOP*
G04 File Format:  Gerber RS274X*
G04 File Origin:  Cadence Allegro 17.2-P019*
G04 Origin Date:  Mon Jul 29 15:43:25 2019*
G04 *
G04 Layer:  ETCH/TOP*
G04 Layer:  PIN/TOP*
G04 Layer:  VIA CLASS/TOP*
G04 *
G04 Offset:    (0.000 0.000)*
G04 Mirror:    No*
G04 Mode:      Positive*
G04 Rotation:  0*
G04 FullContactRelief:  No*
G04 UndefLineWidth:     0.000*
G04 ================== end FILE IDENTIFICATION RECORD ====================*
%FSLAX55Y55*MOMM*%
%IR0*IPPOS*OFA0.00000B0.00000*MIA0B0*SFA1.00000B1.00000*%
%ADD13R,1.9X.4*%
%ADD21C,1.321*%
%ADD24R,1.321X1.321*%
%ADD22C,1.575*%
%ADD23R,1.575X1.575*%
%ADD16O,.457X1.778*%
%ADD20O,1.778X.457*%
%ADD17R,.457X1.778*%
%ADD19R,1.778X.457*%
%ADD12O,1.9X1.2*%
%ADD11R,1.9X1.1*%
%ADD18C,.61*%
%ADD10C,.635*%
%ADD14R,1.499X2.845*%
%ADD15R,2.845X1.499*%
%ADD25C,.254*%
%ADD26C,.381*%
%ADD30C,1.58*%
%ADD29C,1.834*%
%ADD28R,2.338X1.104*%
%ADD27R,5.084X5.084*%
G75*
%LPD*%
G75*
G36*
G01X300100Y300100D02*
Y876100D01*
X1155900D01*
Y920500D01*
X1721900D01*
X1778700Y977300D01*
Y1044800D01*
X1789300D01*
X1913600Y920500D01*
X2269200D01*
X2371600Y1023000D01*
G02X2389000Y1015800I7207J-7208D01*
G01Y909200D01*
G03X2459100Y899000I35773J-130D01*
G01X2460100Y902600D01*
X2469000D01*
Y886300D01*
G03X2482000Y873400I12900J0D01*
G01X2527600D01*
G03X2540600Y886300I100J12900D01*
G01Y902600D01*
X2549500D01*
X2550500Y899000D01*
G03X2615900Y891600I34268J10162D01*
G02X2633700I8900J-5058D01*
G03X2695900I31100J17550D01*
G02X2713700I8900J-5058D01*
G03X2775900I31100J17550D01*
G02X2793700I8900J-5058D01*
G03X2855900I31100J17550D01*
G02X2873700I8900J-5058D01*
G03X2935900I31100J17550D01*
G02X2953700I8900J-5058D01*
G03X3020600Y909200I31147J17555D01*
G01Y1041200D01*
G03X2953700Y1058800I-35753J45D01*
G02X2935900I-8900J5058D01*
G03X2873700I-31100J-17550D01*
G02X2855900I-8900J5058D01*
G03X2793700I-31100J-17550D01*
G02X2775900I-8900J5058D01*
G03X2757100Y1074800I-31132J-17536D01*
G01X2756100Y1075200D01*
X2719400Y1111900D01*
X2716700D01*
X2416700Y1411900D01*
Y1414600D01*
X2380000Y1451300D01*
X2379600Y1452300D01*
G03X2363600Y1471100I-33536J-12332D01*
G02Y1488900I5058J8900D01*
G03Y1551100I-17550J31100D01*
G02Y1568900I5058J8900D01*
G03X2356200Y1634300I-17562J31132D01*
G01X2352600Y1635300D01*
Y1644200D01*
X2368900D01*
G03X2381800Y1657200I0J12900D01*
G01Y1702800D01*
G03X2368900Y1715800I-12900J100D01*
G01X2191100D01*
G03X2178200Y1702800I0J-12900D01*
G01Y1657200D01*
G03X2191100Y1644200I12900J-100D01*
G01X2207400D01*
Y1635300D01*
X2203800Y1634300D01*
G03X2206700Y1565000I10140J-34286D01*
G02Y1555000I-1032J-5000D01*
G03X2199000Y1552500I7121J-35039D01*
G01X2198000Y1552000D01*
X2065300D01*
G03X2061300Y1555300I-29574J-31774D01*
G02X2060000Y1570800I5908J8300D01*
G01X2121100Y1631900D01*
Y2084900D01*
X2169600Y2133400D01*
X2652200D01*
X2732300Y2213500D01*
Y2364800D01*
X2781600D01*
G03X2794600Y2377800I50J12950D01*
G01Y2662200D01*
G03X2781600Y2675200I-12950J50D01*
G01X2631800D01*
G03X2618800Y2662200I-50J-12950D01*
G01Y2377800D01*
G03X2631800Y2364800I12950J-50D01*
G01X2681100D01*
Y2234700D01*
X2631000Y2184600D01*
X2148400D01*
X2069900Y2106100D01*
Y1653100D01*
X2018300Y1601500D01*
X2002200D01*
X2000400Y1599700D01*
X1994100Y1602300D01*
Y2374400D01*
X2070200D01*
X2174700Y2478900D01*
G02X2192200Y2471700I7286J-7159D01*
G01Y2377800D01*
G03X2205000Y2364800I12900J-100D01*
G01X2355000D01*
G03X2367800Y2377800I-100J12900D01*
G01Y2662200D01*
G03X2355000Y2675200I-12900J100D01*
G01X2205000D01*
G03X2192200Y2662200I100J-12900D01*
G01Y2545600D01*
X2169000D01*
X2049000Y2425600D01*
X1834600D01*
Y2542200D01*
G03X1821600Y2555200I-12950J50D01*
G01X1671800D01*
G03X1658800Y2542200I-50J-12950D01*
G01Y2257800D01*
G03X1671800Y2244800I12950J-50D01*
G01X1821600D01*
G03X1834600Y2257800I50J12950D01*
G01Y2374400D01*
X1942900D01*
Y1596100D01*
X1916400Y1569600D01*
Y1470400D01*
X1927800Y1459000D01*
Y1365500D01*
G02X1910400Y1358300I-10198J20D01*
G01X1785800Y1482900D01*
Y1686400D01*
X1835200D01*
G03X1848000Y1699200I-50J12850D01*
G01Y1983800D01*
G03X1835200Y1996600I-12850J-50D01*
G01X1685200D01*
G03X1672400Y1983800I50J-12850D01*
G01Y1699200D01*
G03X1685200Y1686400I12850J50D01*
G01X1734600D01*
Y1461700D01*
X2102000Y1094300D01*
X2189000D01*
G03X2214000Y1084200I24896J25632D01*
G01X2317700D01*
G02X2324900Y1066700I11J-10226D01*
G01X2242600Y984500D01*
X1940200D01*
X1834600Y1090100D01*
Y1342200D01*
G03X1832000Y1350000I-12927J24D01*
G01X1830900Y1351500D01*
X1829400Y1352600D01*
G03X1821600Y1355200I-7776J-10327D01*
G01X1671800D01*
G03X1658800Y1342200I-50J-12950D01*
G01Y1057800D01*
G03X1671800Y1044800I12950J-50D01*
G01X1714700D01*
Y1003900D01*
X1695300Y984500D01*
X1155900D01*
Y1482400D01*
G02X1173300Y1489600I10198J-20D01*
G01X1294400Y1368500D01*
Y1355200D01*
X1245000D01*
G03X1232200Y1342200I100J-12900D01*
G01Y1057800D01*
G03X1245000Y1044800I12900J-100D01*
G01X1395000D01*
G03X1407800Y1057800I-100J12900D01*
G01Y1342200D01*
G03X1395000Y1355200I-12900J100D01*
G01X1345600D01*
Y1389700D01*
X1155900Y1579400D01*
Y1654400D01*
X1249900D01*
X1281900Y1686400D01*
X1408400D01*
G03X1421400Y1699200I100J12900D01*
G01Y1983800D01*
G03X1408400Y1996600I-12900J-100D01*
G01X1258600D01*
G03X1245600Y1983800I-100J-12900D01*
G01Y1722600D01*
X1228700Y1705600D01*
X1155900D01*
Y1780600D01*
X1168600Y1793300D01*
Y2212400D01*
X1174700Y2218500D01*
X1242000D01*
X1268400Y2244800D01*
X1395000D01*
G03X1407800Y2257800I-100J12900D01*
G01Y2542200D01*
G03X1395000Y2555200I-12900J100D01*
G01X1245000D01*
G03X1232200Y2542200I100J-12900D01*
G01Y2281100D01*
X1220800Y2269700D01*
X1155900D01*
Y2489400D01*
X413000D01*
Y3479200D01*
X435100Y3501300D01*
X1164800D01*
Y3458400D01*
G03X1177800Y3445400I12950J-50D01*
G01X1462200D01*
G03X1475200Y3458400I50J12950D01*
G01Y3608200D01*
G03X1462200Y3621200I-12950J50D01*
G01X1177800D01*
G03X1164800Y3608200I-50J-12950D01*
G01Y3565300D01*
X408500D01*
X349000Y3505800D01*
Y2489400D01*
X300100D01*
Y4199900D01*
X9699900D01*
Y300100D01*
X300100D01*
G37*
G36*
G01X432400Y984500D02*
X413000Y1003900D01*
Y2476500D01*
X730000D01*
Y1877900D01*
X829900Y1778000D01*
X862100D01*
Y1530000D01*
G03X865700Y1521000I12921J-52D01*
G02Y1514000I-3650J-3500D01*
G03X862100Y1505000I9321J-8948D01*
G01Y1395000D01*
G03X875000Y1382100I12900J0D01*
G01X1065000D01*
G03X1077900Y1395000I0J12900D01*
G01Y1505000D01*
G03X1074300Y1514000I-12921J52D01*
G02Y1521000I3650J3500D01*
G03X1077900Y1530000I-9321J8948D01*
G01Y1654400D01*
X1143000D01*
Y984500D01*
X432400D01*
G37*
%LPC*%
G75*
G36*
G01X5672200Y1297800D02*
Y1582200D01*
G02X5685000Y1595200I12900J100D01*
G01X5835000D01*
G02X5847800Y1582200I-100J-12900D01*
G01Y1297800D01*
G02X5835000Y1284800I-12900J-100D01*
G01X5685000D01*
G02X5672200Y1297800I100J12900D01*
G37*
G36*
G01Y577800D02*
Y862200D01*
G02X5685000Y875200I12900J100D01*
G01X5835000D01*
G02X5847800Y862200I-100J-12900D01*
G01Y577800D01*
G02X5835000Y564800I-12900J-100D01*
G01X5685000D01*
G02X5672200Y577800I100J12900D01*
G37*
G36*
G01X4044800Y3885000D02*
Y4035000D01*
G02X4057800Y4047800I12900J-100D01*
G01X4342200D01*
G02X4355200Y4035000I100J-12900D01*
G01Y3885000D01*
G02X4342200Y3872200I-12900J100D01*
G01X4057800D01*
G02X4044800Y3885000I-100J12900D01*
G37*
G36*
G01X3324800D02*
Y4035000D01*
G02X3337800Y4047800I12900J-100D01*
G01X3622200D01*
G02X3635200Y4035000I100J-12900D01*
G01Y3885000D01*
G02X3622200Y3872200I-12900J100D01*
G01X3337800D01*
G02X3324800Y3885000I-100J12900D01*
G37*
G36*
G01X2124800D02*
Y4035000D01*
G02X2137800Y4047800I12900J-100D01*
G01X2422200D01*
G02X2435200Y4035000I100J-12900D01*
G01Y3885000D01*
G02X2422200Y3872200I-12900J100D01*
G01X2137800D01*
G02X2124800Y3885000I-100J12900D01*
G37*
G36*
G01X8487600Y3794800D02*
G02X8474800Y3781800I-12900J-100D01*
G01X8324800D01*
G02X8312000Y3794800I100J12900D01*
G01Y4046900D01*
X8263300Y4095500D01*
X7395300D01*
G02Y4159500I-29300J32000D01*
G01X8289900D01*
X8357200Y4092200D01*
X8474800D01*
G02X8487600Y4079200I-100J-12900D01*
G01Y3794800D01*
G37*
G36*
G01X6030700Y3524000D02*
X5913700Y3641000D01*
X5814000D01*
G02X5801000Y3654000I-50J12950D01*
G01Y3786000D01*
G02X5814000Y3799000I12950J50D01*
G01X5946000D01*
G02X5959000Y3786000I50J-12950D01*
G01Y3686300D01*
X6057300Y3588000D01*
X6422700D01*
X6521000Y3686300D01*
Y3786000D01*
G02X6534000Y3799000I12950J50D01*
G01X6666000D01*
G02X6679000Y3786000I50J-12950D01*
G01Y3686300D01*
X6713800Y3651500D01*
X6786500D01*
G03X6794200Y3668400I5J10202D01*
G02X6913800I59800J51600D01*
G03X6921500Y3651500I7695J-6698D01*
G01X7206200D01*
X7241000Y3686300D01*
Y3786000D01*
G02X7254000Y3799000I12950J50D01*
G01X7386000D01*
G02X7399000Y3786000I50J-12950D01*
G01Y3654000D01*
G02X7386000Y3641000I-12950J-50D01*
G01X7286300D01*
X7232800Y3587500D01*
X6687200D01*
X6633700Y3641000D01*
X6566300D01*
X6449300Y3524000D01*
X6030700D01*
G37*
G36*
G01X8479000Y3174000D02*
G02X8466000Y3161000I-12950J-50D01*
G01X8334000D01*
G02X8321000Y3174000I-50J12950D01*
G01Y3306000D01*
G02X8334000Y3319000I12950J50D01*
G01X8442700D01*
X8800900Y3677100D01*
Y3781800D01*
X8751600D01*
G02X8738600Y3794800I-50J12950D01*
G01Y4079200D01*
G02X8751600Y4092200I12950J50D01*
G01X8901400D01*
G02X8914400Y4079200I50J-12950D01*
G01Y3794800D01*
G02X8901400Y3781800I-12950J-50D01*
G01X8852100D01*
Y3655900D01*
X8479000Y3282700D01*
Y3174000D01*
G37*
G36*
G01X8692000Y2896400D02*
X8554600Y2758900D01*
Y2497800D01*
G02X8541600Y2484800I-12950J-50D01*
G01X8391800D01*
G02X8378800Y2497800I-50J12950D01*
G01Y2782200D01*
G02X8391800Y2795200I12950J50D01*
G01X8518300D01*
X8670800Y2947600D01*
X9271900D01*
X9273000Y2951100D01*
G02Y2892900I87000J-29100D01*
G01X9271900Y2896400D01*
X8692000D01*
G37*
G36*
G01X8943500Y2642400D02*
X8579000Y2277900D01*
Y2016800D01*
G02X8566200Y2003800I-12900J-100D01*
G01X8416200D01*
G02X8403400Y2016800I100J12900D01*
G01Y2301200D01*
G02X8416200Y2314200I12900J100D01*
G01X8542800D01*
X8922300Y2693600D01*
X9271900D01*
X9273000Y2697100D01*
G02Y2638900I87000J-29100D01*
G01X9271900Y2642400D01*
X8943500D01*
G37*
G36*
G01X4400800Y1322400D02*
X4318300Y1404800D01*
X4191800D01*
G02X4178800Y1417800I-50J12950D01*
G01Y1702200D01*
G02X4191800Y1715200I12950J50D01*
G01X4341600D01*
G02X4354600Y1702200I50J-12950D01*
G01Y1441100D01*
X4422000Y1373600D01*
X4951900D01*
X4953000Y1377100D01*
G02Y1318900I87000J-29100D01*
G01X4951900Y1322400D01*
X4400800D01*
G37*
G36*
G01X4354600Y937800D02*
G02X4341600Y924800I-12950J-50D01*
G01X4191800D01*
G02X4178800Y937800I-50J12950D01*
G01Y1222200D01*
G02X4191800Y1235200I12950J50D01*
G01X4341600D01*
G02X4354600Y1222200I50J-12950D01*
G01Y1128300D01*
G03X4370100Y1119600I10178J-24D01*
G01X4951900D01*
X4953000Y1123100D01*
G02Y1064900I87000J-29100D01*
G01X4951900Y1068400D01*
X4391700D01*
X4377700Y1054400D01*
X4354600D01*
Y937800D01*
G37*
G36*
G01Y457800D02*
G02X4341600Y444800I-12950J-50D01*
G01X4191800D01*
G02X4178800Y457800I-50J12950D01*
G01Y742200D01*
G02X4191800Y755200I12950J50D01*
G01X4341600D01*
G02X4354600Y742200I50J-12950D01*
G01Y625600D01*
X4970900D01*
X5014400Y669100D01*
Y748400D01*
X4961200D01*
G02X4948400Y761200I50J12850D01*
G01Y918800D01*
G02X4961200Y931600I12850J-50D01*
G01X5118800D01*
G02X5131600Y918800I-50J-12850D01*
G01Y761200D01*
G02X5118800Y748400I-12850J50D01*
G01X5065600D01*
Y647900D01*
X4992100Y574400D01*
X4354600D01*
Y457800D01*
G37*
G36*
G01X8900600Y355400D02*
X5513900D01*
X5435400Y433900D01*
Y1679500D01*
G02X5486600I25600J35000D01*
G01Y455100D01*
X5535100Y406600D01*
X8879400D01*
X8927900Y455100D01*
Y670400D01*
X8874800D01*
G02X8861800Y683200I-100J12900D01*
G01Y736400D01*
X8625400D01*
X8441100Y920700D01*
Y1044800D01*
X8391800D01*
G02X8378800Y1057800I-50J12950D01*
G01Y1342200D01*
G02X8379300Y1345700I12923J-60D01*
G03X8369500Y1358700I-9796J2809D01*
G01X8157400D01*
X8014400Y1501700D01*
Y1524800D01*
X7965000D01*
G02X7952200Y1537800I100J12900D01*
G01Y1654400D01*
X7770900D01*
X7544000Y1881300D01*
Y2164200D01*
X7503600D01*
G02X7486000Y2231000I6J35720D01*
G03Y2248800I-5058J8900D01*
G02Y2311100I17548J31150D01*
G03Y2328800I-4969J8850D01*
G02X7493400Y2394300I17520J31189D01*
G01X7497000Y2395300D01*
Y2404200D01*
X7480700D01*
G02X7467800Y2417200I0J12900D01*
G01Y2462800D01*
G02X7480700Y2475800I12900J100D01*
G01X7497000D01*
Y2484700D01*
X7493400Y2485700D01*
G02X7486000Y2551100I10162J34268D01*
G03Y2568900I-5058J8900D01*
G02Y2631100I17550J31100D01*
G03Y2648900I-5058J8900D01*
G02Y2711100I17550J31100D01*
G03Y2728900I-5058J8900D01*
G02X7503600Y2795800I17555J31147D01*
G01X7635600D01*
G02X7669600Y2771100I-4J-35756D01*
G03X7686500Y2767100I9686J3223D01*
G01X8056900Y3137500D01*
Y3165300D01*
G02X8108100I25600J74700D01*
G01Y3116300D01*
X7671400Y2679600D01*
X7671300Y2677700D01*
G02X7653200Y2648900I-35653J2319D01*
G03Y2631100I5058J-8900D01*
G02Y2568900I-17550J-31100D01*
G03Y2551100I5058J-8900D01*
G02X7645800Y2485700I-17562J-31132D01*
G01X7642200Y2484700D01*
Y2475800D01*
X7658500D01*
G02X7671400Y2462800I0J-12900D01*
G01Y2446800D01*
X7673200Y2445000D01*
X7717700D01*
G02X7788100Y2399100I29290J-32014D01*
G03X7797800Y2385600I9653J-3299D01*
G01X7816700D01*
X7952200Y2521100D01*
Y2782200D01*
G02X7965000Y2795200I12900J100D01*
G01X8115000D01*
G02X8127800Y2782200I-100J-12900D01*
G01Y2665600D01*
X8165600D01*
X8255200Y2576000D01*
Y1674500D01*
X8361400Y1568300D01*
G03X8378800Y1575500I7219J7179D01*
G01Y1822200D01*
G02X8391800Y1835200I12950J50D01*
G01X8541600D01*
G02X8554600Y1822200I50J-12950D01*
G01Y1705600D01*
X8615400D01*
X9279600Y2369800D01*
X9277900Y2373100D01*
G02X9319100Y2331900I82100J40900D01*
G01X9315800Y2333600D01*
X8636600Y1654400D01*
X8554600D01*
Y1549600D01*
X8865400D01*
X8866500Y1553100D01*
G02Y1494900I87000J-29100D01*
G01X8865400Y1498400D01*
X8574500D01*
X8562800Y1486700D01*
X8452400D01*
X8431100Y1465400D01*
G03X8438300Y1448000I7220J-7202D01*
G01X8811700D01*
X8909300Y1350400D01*
X8912600Y1352100D01*
G02X8871400Y1310900I40900J-82100D01*
G01X8873100Y1314200D01*
X8790500Y1396800D01*
X8620400D01*
Y1385300D01*
X8909300Y1096400D01*
X8912600Y1098100D01*
G02X8871400Y1056900I40900J-82100D01*
G01X8873100Y1060200D01*
X8576700Y1356600D01*
G02X8574800Y1358700I18007J18201D01*
G01X8563900D01*
G03X8554100Y1345700I-4J-10191D01*
G02X8554600Y1342200I-12423J-3560D01*
G01Y1057800D01*
G02X8541600Y1044800I-12950J-50D01*
G01X8492300D01*
Y941900D01*
X8646600Y787600D01*
X8861800D01*
Y840800D01*
G02X8874800Y853600I12900J-100D01*
G01X9008900D01*
X9334400Y1179100D01*
Y2068400D01*
X9281200D01*
G02X9268400Y2081200I50J12850D01*
G01Y2238800D01*
G02X9281200Y2251600I12850J-50D01*
G01X9438800D01*
G02X9451600Y2238800I-50J-12850D01*
G01Y2081200D01*
G02X9438800Y2068400I-12850J50D01*
G01X9385600D01*
Y1157900D01*
X9045200Y817400D01*
Y683200D01*
G02X9032200Y670400I-12900J100D01*
G01X8979100D01*
Y433900D01*
X8900600Y355400D01*
G37*
G36*
G01X3915000Y444800D02*
X3765000D01*
G02X3752200Y457800I100J12900D01*
G01Y574400D01*
X3351800D01*
X3276400Y649800D01*
Y1071200D01*
X3242900Y1104700D01*
G03X3226800Y1102400I-7178J-7254D01*
G02X3195600Y1084200I-31132J17526D01*
G01X3063600D01*
G02X3046000Y1151000I6J35720D01*
G03Y1168800I-5058J8900D01*
G02Y1231100I17548J31150D01*
G03Y1248800I-4969J8850D01*
G02X3053400Y1314300I17520J31189D01*
G01X3057000Y1315300D01*
Y1324200D01*
X3040700D01*
G02X3027800Y1337200I0J12900D01*
G01Y1382800D01*
G02X3040700Y1395800I12900J100D01*
G01X3057000D01*
Y1404700D01*
X3053400Y1405700D01*
G02X3038600Y1414400I10190J34273D01*
G01X2989700D01*
Y1710600D01*
X2997300Y1718300D01*
X2992000Y1723600D01*
X2989500Y1723300D01*
G02X2953700Y1741200I-4657J35435D01*
G03X2935900I-8900J-5058D01*
G02X2873700I-31100J17550D01*
G03X2855900I-8900J-5058D01*
G02X2793700I-31100J17550D01*
G03X2775900I-8900J-5058D01*
G02X2713700I-31100J17550D01*
G03X2695900I-8900J-5058D01*
G02X2630500Y1748600I-31132J17562D01*
G01X2629500Y1752200D01*
X2620600D01*
Y1735900D01*
G02X2607600Y1723000I-12900J0D01*
G01X2562000D01*
G02X2549000Y1735900I-100J12900D01*
G01Y1752200D01*
X2540100D01*
X2539100Y1748600D01*
G02X2473700Y1741200I-34268J10162D01*
G03X2455900I-8900J-5058D01*
G02X2389000Y1758800I-31147J17555D01*
G01Y1890800D01*
G02X2455900Y1908400I35753J45D01*
G03X2473700I8900J5058D01*
G02X2539100Y1901000I31132J-17562D01*
G01X2540100Y1897400D01*
X2549000D01*
Y1913700D01*
G02X2562000Y1926600I12900J0D01*
G01X2584400D01*
X2615100Y1957300D01*
X2626800D01*
X2634200Y1964700D01*
X2688500D01*
X2763300Y2039500D01*
Y2097400D01*
X2832300Y2166400D01*
Y2844400D01*
X2254400Y3422300D01*
Y3445400D01*
X2137800D01*
G02X2124800Y3458400I-50J12950D01*
G01Y3507700D01*
X1802800D01*
X1752400Y3558100D01*
Y3926400D01*
X1744400Y3934400D01*
X1475200D01*
Y3885000D01*
G02X1462200Y3872200I-12900J100D01*
G01X1177800D01*
G02X1164800Y3885000I-100J12900D01*
G01Y4035000D01*
G02X1177800Y4047800I12900J-100D01*
G01X1462200D01*
G02X1475200Y4035000I100J-12900D01*
G01Y3985600D01*
X1765600D01*
X1803600Y3947600D01*
Y3579300D01*
X1824000Y3558900D01*
X2124800D01*
Y3608200D01*
G02X2137800Y3621200I12950J50D01*
G01X2422200D01*
G02X2435200Y3608200I50J-12950D01*
G01Y3458400D01*
G02X2422200Y3445400I-12950J-50D01*
G01X2328300D01*
G03X2321100Y3428000I-21J-10181D01*
G01X2883500Y2865600D01*
Y2188300D01*
G03X2900900Y2181100I10198J20D01*
G01X3265400Y2545600D01*
X3405300D01*
G02X3454400Y2594700I74700J-25600D01*
G01Y3445400D01*
X3337800D01*
G02X3324800Y3458400I-50J12950D01*
G01Y3608200D01*
G02X3337800Y3621200I12950J50D01*
G01X3622200D01*
G02X3635200Y3608200I50J-12950D01*
G01Y3458400D01*
G02X3622200Y3445400I-12950J-50D01*
G01X3505600D01*
Y2594700D01*
G02X3558800Y2514200I-25582J-74736D01*
G03X3576200Y2506300I10168J-716D01*
G01X3593900Y2524000D01*
Y2779200D01*
X3634300Y2819600D01*
X4174400D01*
Y3445400D01*
X4057800D01*
G02X4044800Y3458400I-50J12950D01*
G01Y3608200D01*
G02X4057800Y3621200I12950J50D01*
G01X4342200D01*
G02X4355200Y3608200I50J-12950D01*
G01Y3458400D01*
G02X4342200Y3445400I-12950J-50D01*
G01X4225600D01*
Y2664200D01*
X4267600Y2622200D01*
Y2594700D01*
G02X4213200Y2593500I-25565J-74716D01*
G01X4216400Y2594800D01*
Y2601000D01*
X4174400Y2643000D01*
Y2768400D01*
X3655500D01*
X3645100Y2758000D01*
Y2522400D01*
G03X3660600Y2513700I10189J-4D01*
G02X3678700Y2433300I22380J-37199D01*
G01X3676300Y2433600D01*
X3669000Y2426300D01*
Y2424500D01*
X3043700Y1799200D01*
X3020600D01*
Y1758800D01*
G02X3020200Y1754100I-35738J675D01*
G01X3019900Y1751600D01*
X3025300Y1746200D01*
X3344700Y2065600D01*
X3752200D01*
Y2182200D01*
G02X3765000Y2195200I12900J100D01*
G01X3915000D01*
G02X3927800Y2182200I-100J-12900D01*
G01Y1897800D01*
G02X3915000Y1884800I-12900J-100D01*
G01X3765000D01*
G02X3752200Y1897800I100J12900D01*
G01Y2014400D01*
X3365900D01*
X3084700Y1733200D01*
G03X3091900Y1715800I7179J-7219D01*
G01X3195600D01*
G02X3220600Y1705600I-12J-35766D01*
G01X3510900D01*
X3672400Y1867100D01*
X4101900D01*
Y2169600D01*
X4180400Y2248100D01*
X4985100D01*
X5564400Y2827400D01*
G03X5557200Y2844800I-7179J7219D01*
G01X5445000D01*
G02X5432200Y2857800I100J12900D01*
G01Y3142200D01*
G02X5445000Y3155200I12900J100D01*
G01X5595000D01*
G02X5607800Y3142200I-100J-12900D01*
G01Y2895500D01*
G03X5625300Y2888300I10214J-41D01*
G01X5752900Y3015900D01*
Y3160200D01*
X5793300Y3200600D01*
X6463400D01*
X6811600Y2852400D01*
G03X6829000Y2859600I7219J7179D01*
G01Y2970800D01*
G02X6895900Y2988400I35753J45D01*
G03X6913700I8900J5058D01*
G02X6979100Y2981000I31132J-17562D01*
G01X6980100Y2977400D01*
X6989000D01*
Y2993700D01*
G02X7002000Y3006600I12900J0D01*
G01X7047600D01*
G02X7060600Y2993700I100J-12900D01*
G01Y2977400D01*
X7069500D01*
X7070500Y2981000D01*
G02X7135900Y2988400I34268J-10162D01*
G03X7153700I8900J5058D01*
G02X7215900I31100J-17550D01*
G03X7233700I8900J5058D01*
G02X7295900I31100J-17550D01*
G03X7313700I8900J5058D01*
G02X7375900I31100J-17550D01*
G03X7393700I8900J5058D01*
G02X7460600Y2970800I31147J-17555D01*
G01Y2838800D01*
G02X7393700Y2821200I-35753J-45D01*
G03X7375900I-8900J-5058D01*
G02X7313700I-31100J17550D01*
G03X7295900I-8900J-5058D01*
G02X7233700I-31100J17550D01*
G03X7215900I-8900J-5058D01*
G02X7153700I-31100J17550D01*
G03X7135900I-8900J-5058D01*
G02X7070500Y2828600I-31132J17562D01*
G01X7069500Y2832200D01*
X7060600D01*
Y2815900D01*
G02X7047600Y2803000I-12900J0D01*
G01X7002000D01*
G02X6989000Y2815900I-100J12900D01*
G01Y2832200D01*
X6980100D01*
X6979100Y2828600D01*
G02X6913700Y2821200I-34268J10162D01*
G03X6895900I-8900J-5058D01*
G02X6865000Y2803000I-31139J17536D01*
G03X6859900Y2797900I-2J-5098D01*
G01Y2715900D01*
X6821800Y2677800D01*
X6821600Y2676000D01*
G02X6803600Y2648900I-35513J4060D01*
G03Y2631100I5058J-8900D01*
G02Y2568900I-17550J-31100D01*
G03Y2551100I5058J-8900D01*
G02Y2488900I-17550J-31100D01*
G03Y2471100I5058J-8900D01*
G02Y2408900I-17550J-31100D01*
G03Y2391100I5058J-8900D01*
G02Y2328800I-17548J-31150D01*
G03Y2311100I4969J-8850D01*
G02Y2248800I-17548J-31150D01*
G03Y2231000I5058J-8900D01*
G02X6786000Y2164200I-17606J-31080D01*
G01X6654000D01*
G02X6622000Y2183800I-110J35742D01*
G03X6605700Y2186400I-9094J-4620D01*
G01X6445500Y2026100D01*
Y1929800D01*
X6388700Y1873000D01*
X5784800D01*
X5728000Y1929800D01*
Y2004800D01*
X5685000D01*
G02X5672200Y2017800I100J12900D01*
G01Y2127000D01*
X5426800D01*
G02Y2191000I-29300J32000D01*
G01X5638900D01*
X5639900Y2192000D01*
X5672200D01*
Y2302200D01*
G02X5685000Y2315200I12900J100D01*
G01X5835000D01*
G02X5847800Y2302200I-100J-12900D01*
G01Y2017800D01*
G02X5835000Y2004800I-12900J-100D01*
G01X5792000D01*
Y1956400D01*
X5811400Y1937000D01*
X6110300D01*
G03X6119700Y1951200I20J10198D01*
G02X6121600Y1989700I39797J17333D01*
G03X6112700Y2004800I-8898J4929D01*
G01X6111800D01*
G02X6098800Y2017800I-50J12950D01*
G01Y2302200D01*
G02X6111800Y2315200I12950J50D01*
G01X6161100D01*
Y2641300D01*
X6305400Y2785600D01*
X6618100D01*
X6619500Y2788500D01*
G02X6631100Y2795800I11600J-5566D01*
G01X6771200D01*
G03X6778400Y2813200I21J10181D01*
G01X6442200Y3149400D01*
X6034400D01*
Y3144000D01*
X6034500Y3143700D01*
G02X6034600Y3142200I-12839J-1609D01*
G01Y2857800D01*
G02X6021600Y2844800I-12950J-50D01*
G01X5895100D01*
X5183600Y2133400D01*
X5154100D01*
X5035100Y2014400D01*
X4354600D01*
Y1921100D01*
X4370300Y1905300D01*
X4437600D01*
X4715300Y1627600D01*
X4951900D01*
X4953000Y1631100D01*
G02Y1572900I87000J-29100D01*
G01X4951900Y1576400D01*
X4694100D01*
X4416400Y1854100D01*
X4349100D01*
X4318300Y1884800D01*
X4191800D01*
G02X4178800Y1897800I-50J12950D01*
G01Y2149500D01*
G03X4161400Y2156700I-10181J21D01*
G01X4153100Y2148400D01*
Y1815900D01*
X3693600D01*
X3532100Y1654400D01*
X3220600D01*
G02X3213200Y1648900I-24835J25686D01*
G03Y1631100I5058J-8900D01*
G02Y1568900I-17550J-31100D01*
G03Y1551100I5058J-8900D01*
G02Y1488900I-17550J-31100D01*
G03Y1471100I5058J-8900D01*
G02X3229600Y1451100I-17553J-31117D01*
G03X3246500Y1447100I9686J3223D01*
G01X3385000Y1585600D01*
X3752200D01*
Y1702200D01*
G02X3765000Y1715200I12900J100D01*
G01X3915000D01*
G02X3927800Y1702200I-100J-12900D01*
G01Y1417800D01*
G02X3915000Y1404800I-12900J-100D01*
G01X3765000D01*
G02X3752200Y1417800I100J12900D01*
G01Y1534400D01*
X3406200D01*
X3231400Y1359600D01*
Y1337200D01*
G02X3218500Y1324200I-12900J-100D01*
G01X3202200D01*
Y1315300D01*
X3205800Y1314300D01*
G02X3220600Y1305600I-10190J-34273D01*
G01X3495800D01*
X3695800Y1105600D01*
X3752200D01*
Y1222200D01*
G02X3765000Y1235200I12900J100D01*
G01X3915000D01*
G02X3927800Y1222200I-100J-12900D01*
G01Y937800D01*
G02X3915000Y924800I-12900J-100D01*
G01X3765000D01*
G02X3752200Y937800I100J12900D01*
G01Y1054400D01*
X3674600D01*
X3474600Y1254400D01*
X3220600D01*
G02X3213200Y1248800I-25104J25484D01*
G03Y1231100I4969J-8850D01*
G02X3231300Y1202200I-17587J-31133D01*
G01X3231400Y1200300D01*
X3255500Y1176200D01*
Y1164500D01*
X3327600Y1092400D01*
Y671000D01*
X3373000Y625600D01*
X3752200D01*
Y742200D01*
G02X3765000Y755200I12900J100D01*
G01X3915000D01*
G02X3927800Y742200I-100J-12900D01*
G01Y457800D01*
G02X3915000Y444800I-12900J-100D01*
G37*
G36*
G01X6261600Y564800D02*
X6111800D01*
G02X6098800Y577800I-50J12950D01*
G01Y862200D01*
G02X6111800Y875200I12950J50D01*
G01X6261600D01*
G02X6274600Y862200I50J-12950D01*
G01Y745600D01*
X6765300D01*
G02X6912400Y688400I74714J-25606D01*
G01X6911000Y685200D01*
X6942100Y654100D01*
X7532300D01*
G03X7540300Y670700I48J10204D01*
G02X7576400Y794700I61714J49288D01*
G01Y1009500D01*
X7340400Y1245500D01*
X6277700D01*
X6238300Y1284800D01*
X6111800D01*
G02X6098800Y1297800I-50J12950D01*
G01Y1582200D01*
G02X6111800Y1595200I12950J50D01*
G01X6261600D01*
G02X6274600Y1582200I50J-12950D01*
G01Y1321100D01*
X6298900Y1296700D01*
X6752200D01*
Y1414400D01*
X6532500D01*
G02Y1465600I-35000J25600D01*
G01X6752200D01*
Y1582200D01*
G02X6765000Y1595200I12900J100D01*
G01X6915000D01*
G02X6927800Y1582200I-100J-12900D01*
G01Y1296700D01*
X7178800D01*
Y1582200D01*
G02X7191800Y1595200I12950J50D01*
G01X7303900D01*
G03X7311100Y1612600I21J10181D01*
G01X7046500Y1877200D01*
X6938800D01*
X6873500Y1942500D01*
Y1944300D01*
X6864400Y1953400D01*
X6862500Y1953500D01*
G02X6829000Y1989200I2258J35687D01*
G01Y2121200D01*
G02X6899100Y2131400I35773J130D01*
G01X6900100Y2127800D01*
X6909000D01*
Y2144100D01*
G02X6922000Y2157000I12900J0D01*
G01X6967600D01*
G02X6980600Y2144100I100J-12900D01*
G01Y2127800D01*
X6989500D01*
X6990500Y2131400D01*
G02X7055900Y2138800I34268J-10162D01*
G03X7073700I8900J5058D01*
G02X7135900I31100J-17550D01*
G03X7153700I8900J5058D01*
G02X7215900I31100J-17550D01*
G03X7233700I8900J5058D01*
G02X7295900I31100J-17550D01*
G03X7313700I8900J5058D01*
G02X7375900I31100J-17550D01*
G03X7393700I8900J5058D01*
G02X7460600Y2121200I31147J-17555D01*
G01Y1989200D01*
G02X7450400Y1964200I-35766J12D01*
G01Y1729800D01*
X7567100Y1613100D01*
X7730400D01*
X7988400Y1355200D01*
X8115000D01*
G02X8127800Y1342200I-100J-12900D01*
G01Y1057800D01*
G02X8115000Y1044800I-12900J-100D01*
G01X7965000D01*
G02X7952200Y1057800I100J12900D01*
G01Y1318900D01*
X7709200Y1561900D01*
X7545900D01*
X7399200Y1708600D01*
Y1964200D01*
G02X7393700Y1971600I25686J24835D01*
G03X7375900I-8900J-5058D01*
G02X7313700I-31100J17550D01*
G03X7295900I-8900J-5058D01*
G02X7233700I-31100J17550D01*
G03X7215900I-8900J-5058D01*
G02X7153700I-31100J17550D01*
G03X7135900I-8900J-5058D01*
G02X7115800Y1955100I-31178J17488D01*
G03X7111800Y1938200I3183J-9677D01*
G01X7455100Y1594900D01*
Y1280600D01*
X7772600Y963100D01*
Y649800D01*
X7725700Y602900D01*
X6920900D01*
X6874800Y649000D01*
X6871600Y647600D01*
G02X6765300Y694400I-31577J72400D01*
G01X6274600D01*
Y577800D01*
G02X6261600Y564800I-12950J-50D01*
G37*
G36*
G01X565000Y2119600D02*
G02Y2265400I0J72900D01*
G01X635000D01*
G02Y2119600I0J-72900D01*
G01X565000D01*
G37*
G36*
G01Y1094600D02*
G02Y1240400I0J72900D01*
G01X635000D01*
G02Y1094600I0J-72900D01*
G01X565000D01*
G37*
G36*
G01X935000D02*
G02Y1240400I0J72900D01*
G01X1005000D01*
G02Y1094600I0J-72900D01*
G01X935000D01*
G37*
G54D30*
X6134000Y3720000D03*
X7574000D03*
G54D29*
X5040000Y1856000D03*
X8953500Y1778000D03*
X9360000Y3176000D03*
G54D28*
X2263000Y592700D03*
G54D27*
X600000Y600000D03*
Y3840000D03*
X9398000Y635000D03*
Y3873500D03*
%LPD*%
G75*
G54D10*
X600000Y600000D03*
Y3840000D03*
X9398000Y635000D03*
Y3873500D03*
G54D11*
X970000Y1450000D03*
Y1910000D03*
G54D20*
X2280000Y1600000D03*
Y1520000D03*
Y1440000D03*
Y1360000D03*
Y1280000D03*
Y1199900D03*
Y1119900D03*
X3129600D03*
Y1199900D03*
Y1280000D03*
Y1440000D03*
Y1520000D03*
Y1600000D03*
Y1680000D03*
X6720000Y2600000D03*
Y2520000D03*
Y2440000D03*
Y2360000D03*
Y2279900D03*
Y2199900D03*
Y2680000D03*
X7569600Y2199900D03*
Y2279900D03*
Y2360000D03*
Y2520000D03*
Y2600000D03*
Y2680000D03*
Y2760000D03*
G54D12*
X970000Y1167500D03*
X600000D03*
X970000Y2192500D03*
X600000D03*
G54D21*
X3480000Y2520000D03*
X4242000D03*
X6134000Y3720000D03*
X6840000Y720000D03*
X6854000Y3720000D03*
X7602000Y720000D03*
X7574000Y3720000D03*
X8082500Y3240000D03*
G54D22*
X5040000Y1094000D03*
Y1856000D03*
Y1602000D03*
Y1348000D03*
X8953500Y1016000D03*
Y1778000D03*
Y1524000D03*
Y1270000D03*
X9360000Y2414000D03*
Y2668000D03*
Y2922000D03*
Y3176000D03*
G54D13*
X970000Y1550000D03*
Y1615000D03*
Y1680000D03*
Y1745000D03*
Y1810000D03*
G54D14*
X1320000Y1200000D03*
X1746700D03*
X1333500Y1841500D03*
X1760200D03*
X1320000Y2400000D03*
X1746700D03*
X2280000Y2520000D03*
X2706700D03*
X3840000Y1080000D03*
Y600000D03*
Y1560000D03*
Y2040000D03*
X4266700Y1080000D03*
Y600000D03*
Y1560000D03*
Y2040000D03*
X5520000Y3000000D03*
X5760000Y720000D03*
X6186700D03*
X5760000Y1440000D03*
X6186700D03*
Y2160000D03*
X5760000D03*
X5946700Y3000000D03*
X6840000Y1440000D03*
X7266700D03*
X8040000Y1200000D03*
X8466700D03*
X8040000Y1680000D03*
X8466700D03*
X8064500Y2159000D03*
X8491200D03*
X8466700Y2640000D03*
X8040000D03*
X8399800Y3937000D03*
X8826500D03*
G54D23*
X5040000Y840000D03*
X8953500Y762000D03*
X9360000Y2160000D03*
G54D15*
X1320000Y3960000D03*
Y3533300D03*
X2280000Y3960000D03*
Y3533300D03*
X3480000Y3960000D03*
Y3533300D03*
X4200000Y3960000D03*
Y3533300D03*
G54D24*
X5880000Y3720000D03*
X6600000D03*
X7320000D03*
X8400000Y3240000D03*
G54D25*
G01X1320000Y1200000D02*
Y1379100D01*
X1084100Y1615000D01*
G01D02*
X970000D01*
G01Y1680000D02*
X1239300D01*
X1333500Y1774200D01*
Y1841500D01*
G01X1320000Y2400000D02*
Y2332700D01*
X1231400Y2244100D01*
X1164100D01*
X1143000Y2223000D01*
Y1803900D01*
X1084100Y1745000D01*
X970000D01*
G01X2280000Y1119900D02*
X2112600D01*
X1760200Y1472300D01*
Y1841500D01*
G01X1746700Y2400000D02*
X1968500D01*
G01X1333500Y2425400D02*
Y2400000D01*
X1320000D01*
G01X2280000Y3533300D02*
X1813400D01*
X1778000Y3568700D01*
Y3937000D01*
X1755000Y3960000D01*
X1320000D01*
G01X2280000Y1199900D02*
X2086500D01*
X1953400Y1333000D01*
Y1469600D01*
X1942000Y1481000D01*
Y1559000D01*
X1968500Y1585500D01*
Y2400000D01*
G01X2095500Y1270000D02*
X2155700D01*
X2165700Y1280000D01*
X2280000D01*
G01Y1360000D02*
X2138500D01*
X2134500Y1364000D01*
X2129000D01*
X2028900Y1464100D01*
X2012800D01*
X1980100Y1496800D01*
Y1543200D01*
X2012800Y1575900D01*
X2028900D01*
X2095500Y1642500D01*
Y2095500D01*
X2159000Y2159000D01*
X2641600D01*
X2706700Y2224100D01*
Y2520000D01*
G01X2584800Y1824800D02*
Y1890800D01*
X2625700Y1931700D01*
X2637400D01*
X2644800Y1939100D01*
X2699100D01*
X2788900Y2028900D01*
Y2086800D01*
X2857900Y2155800D01*
Y2855000D01*
X2280000Y3432900D01*
Y3533300D01*
G01X1968500Y2400000D02*
X2059600D01*
X2179600Y2520000D01*
X2280000D01*
G01X3129600Y1199900D02*
X3195600D01*
X3229900Y1165600D01*
Y1153900D01*
X3302000Y1081800D01*
Y660400D01*
X3362400Y600000D01*
X3840000D01*
G01X3683000Y2476500D02*
X3643400Y2436900D01*
Y2435100D01*
X3033100Y1824800D01*
X2984800D01*
G01X4200000Y2794000D02*
X3644900D01*
X3619500Y2768600D01*
Y2513400D01*
X3519100Y2413000D01*
X3222900D01*
X2865100Y2055200D01*
Y1931100D01*
X2824800Y1890800D01*
Y1824800D01*
G01X3840000Y2040000D02*
X3355300D01*
X3015300Y1700000D01*
Y1440000D01*
X3129600D01*
G01X6720000Y2680000D02*
X6787800D01*
X6834300Y2726500D01*
Y2793500D01*
X6452800Y3175000D01*
X5803900D01*
X5778500Y3149600D01*
Y3005300D01*
X4995700Y2222500D01*
X4191000D01*
X4127500Y2159000D01*
Y1841500D01*
X3683000D01*
X3521500Y1680000D01*
X3129600D01*
G01X3840000Y1560000D02*
X3395600D01*
X3195600Y1360000D01*
X3129600D01*
G01X3840000Y1080000D02*
X3685200D01*
X3485200Y1280000D01*
X3129600D01*
G01X3480000Y2520000D02*
X3276000D01*
X2827000Y2071000D01*
Y1973000D01*
X2744800Y1890800D01*
Y1824800D01*
G01X3480000Y3533300D02*
Y2520000D01*
G01X5040000Y1094000D02*
X4381100D01*
X4367100Y1080000D01*
X4266700D01*
G01X5040000Y840000D02*
Y658500D01*
X4981500Y600000D01*
X4266700D01*
G01X5040000Y1348000D02*
X4411400D01*
X4266700Y1492700D01*
Y1560000D01*
G01X5040000Y1602000D02*
X4704700D01*
X4427000Y1879700D01*
X4359700D01*
X4266700Y1972700D01*
Y2040000D01*
G01D02*
X5024500D01*
X5143500Y2159000D01*
X5173000D01*
X5946700Y2932700D01*
Y3000000D01*
G01X4200000Y2794000D02*
Y2653600D01*
X4242000Y2611600D01*
Y2520000D01*
G01X4200000Y3533300D02*
Y2794000D01*
G01X5461000Y1714500D02*
Y444500D01*
X5524500Y381000D01*
X8890000D01*
X8953500Y444500D01*
Y762000D01*
G01X6186700Y720000D02*
X6840000D01*
G01X6186700Y1440000D02*
Y1372700D01*
X6288300Y1271100D01*
X7351000D01*
G01X6720000Y2600000D02*
X6417000D01*
G01X6720000Y2760000D02*
X6316000D01*
X6186700Y2630700D01*
Y2160000D01*
G01X6159500Y1968500D02*
X6162900D01*
X6186700Y1992300D01*
Y2160000D01*
G01X6840000Y720000D02*
X6931500Y628500D01*
X7715100D01*
X7747000Y660400D01*
Y952500D01*
X7429500Y1270000D01*
Y1584300D01*
X7072900Y1940900D01*
X7004800D01*
X6997400Y1948300D01*
X6985700D01*
X6944800Y1989200D01*
Y2055200D01*
G01X6840000Y1440000D02*
X6497500D01*
G01X6864800Y2055200D02*
Y1989200D01*
X6899100Y1954900D01*
Y1953100D01*
X6949400Y1902800D01*
X7057100D01*
X7367100Y1592800D01*
Y1287200D01*
X7351000Y1271100D01*
G01X7602000Y720000D02*
Y1020100D01*
X7351000Y1271100D01*
G01X8040000Y1200000D02*
Y1267300D01*
X7719800Y1587500D01*
X7556500D01*
X7424800Y1719200D01*
Y2055200D01*
G01X8040000Y1680000D02*
X7781500D01*
X7569600Y1891900D01*
Y2199900D01*
G01Y2360000D02*
X7720900D01*
X7723800Y2357100D01*
X7770200D01*
X7773100Y2360000D01*
X7827300D01*
X8040000Y2572700D01*
Y2640000D01*
G01X7569600Y2279900D02*
X7843200D01*
X7964100Y2159000D01*
X8064500D01*
G01X7569600Y2680000D02*
X7635600D01*
X8082500Y3126900D01*
Y3240000D01*
G01X8953500Y762000D02*
X8636000D01*
X8466700Y931300D01*
Y1200000D01*
G01X9360000Y2414000D02*
X8626000Y1680000D01*
X8466700D01*
G01X8040000Y2640000D02*
X8155000D01*
X8229600Y2565400D01*
Y1663900D01*
X8411500Y1482000D01*
X8441800Y1512300D01*
X8552200D01*
X8563900Y1524000D01*
X8953500D01*
G01Y1016000D02*
X8594800Y1374700D01*
Y1384300D01*
X8168000D01*
X8040000Y1512300D01*
Y1680000D01*
G01X8953500Y1270000D02*
X8801100Y1422400D01*
X8255000D01*
X8191500Y1485900D01*
Y1648100D01*
X8191400Y1648200D01*
Y1964800D01*
X8064500Y2091700D01*
Y2159000D01*
G01X9360000Y2668000D02*
X8932900D01*
X8491200Y2226300D01*
Y2159000D01*
G01X9360000Y2922000D02*
X8681400D01*
X8466700Y2707300D01*
Y2640000D01*
G01X8826500Y3937000D02*
Y3666500D01*
X8400000Y3240000D01*
G01X9360000Y2160000D02*
Y1168500D01*
X8953500Y762000D01*
G54D16*
X2424800Y975200D03*
X2584800D03*
X2504800Y1824800D03*
X2424800D03*
X2664800Y975200D03*
X2744800D03*
X2824800D03*
X2904800D03*
X2984800D03*
Y1824800D03*
X2904800D03*
X2824800D03*
X2744800D03*
X2664800D03*
X6864800Y2055200D03*
X7024800D03*
X7104800D03*
X7184800D03*
Y2904800D03*
X7104800D03*
X6944800D03*
X6864800D03*
X7264800Y2055200D03*
X7344800D03*
X7424800D03*
Y2904800D03*
X7344800D03*
X7264800D03*
G54D26*
G01X1746700Y1132700D02*
Y990600D01*
X1708600Y952500D01*
X419100D01*
X381000Y990600D01*
Y3492500D01*
X421800Y3533300D01*
X1320000D01*
G01X970000Y1810000D02*
X843200D01*
X762000Y1891200D01*
Y2984500D01*
G01D02*
X889000Y3111500D01*
X2438400D01*
G01X1746700Y1132700D02*
X1926900Y952500D01*
X2255900D01*
X2400700Y1097300D01*
Y1194200D01*
X2431400Y1224900D01*
X2558400D01*
G01X1746700Y1200000D02*
Y1132700D01*
G01X2424800Y975200D02*
Y898400D01*
X2468700Y854500D01*
G01D02*
X2767400D01*
X2783400Y870500D01*
X2786100D01*
G01X2504800Y1647000D02*
Y1469200D01*
X2824800Y1149200D01*
G01X2504800Y1824800D02*
Y1647000D01*
G01D02*
X2658600D01*
X2664800Y1653200D01*
G01X2504800Y1945500D02*
Y1824800D01*
G01X2280000Y1520000D02*
X2036000D01*
G01X2280000Y1440000D02*
Y1520000D01*
G01X2558400Y1224900D02*
X2384700Y1398600D01*
Y1401300D01*
X2346000Y1440000D01*
X2280000D01*
G01X2744800Y975200D02*
Y1041200D01*
X2706100Y1079900D01*
X2703400D01*
X2558400Y1224900D01*
G01X2438400Y3111500D02*
X2476500Y3073400D01*
Y2846400D01*
X2628900Y2694000D01*
X2794900D01*
X2813400Y2675500D01*
Y2254100D01*
X2504800Y1945500D01*
G01X2438400Y3111500D02*
X2476500D01*
G01X2119700Y3960000D02*
X2280000D01*
G01D02*
Y4053000D01*
G01Y3867000D02*
Y3960000D01*
G01X2667000Y4127500D02*
X2514800D01*
G01D02*
X2347300Y3960000D01*
X2280000D01*
G01X2824800Y909200D02*
X2863500Y870500D01*
G01X2786100D02*
X2824800Y909200D01*
G01X2863500Y870500D02*
X2866200D01*
X2911200Y825500D01*
X3048000D01*
X3129600Y907100D01*
G01D02*
Y1119900D01*
G01X2824800Y1149200D02*
Y975200D01*
G01Y909200D02*
Y975200D01*
G01X2664800Y1653200D02*
Y1824800D01*
G01X2921000Y2032000D02*
Y1841000D01*
X2904800Y1824800D01*
G01X2667000Y4127500D02*
Y3175000D01*
G01X3319700Y3960000D02*
X3480000D01*
G01Y4060400D02*
Y4102100D01*
X3454600Y4127500D01*
X2667000D01*
G01X3480000Y3960000D02*
X3640300D01*
G01X3480000Y3867000D02*
Y3960000D01*
G01X4039700D02*
X4200000D01*
G01X3480000D02*
Y4060400D01*
G01D02*
X3547100Y4127500D01*
X4132900D01*
X4200000Y4060400D01*
G01Y3960000D02*
X4360300D01*
G01X4200000Y3867000D02*
Y3960000D01*
G01X5524500Y4127500D02*
X4267100D01*
X4200000Y4060400D01*
G01D02*
Y3960000D01*
G01X5667000Y720000D02*
X5760000D01*
G01X4943200Y1856000D02*
X5040000D01*
G01D02*
Y1952800D01*
G01Y1759200D02*
Y1856000D01*
G01X5667000Y1440000D02*
X5760000D01*
G01Y1507300D02*
X5411300Y1856000D01*
G01D02*
X5040000D01*
G01X5397500Y2159000D02*
X5652200D01*
X5653200Y2160000D01*
X5760000D01*
G01X5520000Y3000000D02*
X5613000D01*
G01X5427000D02*
X5520000D01*
G01Y2839700D02*
Y3000000D01*
G01Y4123000D02*
Y3000000D01*
G01X5726500Y4127500D02*
X5524500D01*
G01D02*
X5520000Y4123000D01*
G01X5760000Y720000D02*
X5853000D01*
G01X5760000Y559700D02*
Y720000D01*
G01D02*
Y1440000D01*
G01D02*
X5853000D01*
G01X6731000Y1714500D02*
X5967200D01*
G01D02*
X5760000Y1507300D01*
G01Y1440000D02*
Y1507300D01*
G01Y2160000D02*
Y1943100D01*
X5798100Y1905000D01*
X6375400D01*
X6413500Y1943100D01*
Y2039400D01*
X6654000Y2279900D01*
X6720000D01*
G01X6134000Y3720000D02*
X6218100D01*
G01X6049900D02*
X6134000D01*
G01D02*
Y3804100D01*
G01Y3635900D02*
Y3720000D01*
G01D02*
X5726500Y4127500D01*
G01X6134000Y3720000D02*
X6287500Y3873500D01*
G01D02*
X6705600D01*
X6731000Y3848100D01*
Y3843000D01*
G01X5880000Y3720000D02*
X6044000Y3556000D01*
X6436000D01*
X6600000Y3720000D01*
G01X6731000Y1714500D02*
X6720000Y1725500D01*
G01D02*
Y2199900D01*
G01X7266700Y1614100D02*
X7166300Y1714500D01*
X6731000D01*
G01X7240800Y2600000D02*
X6840700Y2199900D01*
G01D02*
X6720000D01*
G01X6854000Y3720000D02*
X6938100D01*
G01X6769900D02*
X6854000D01*
G01D02*
Y3804100D01*
G01X6731000Y3843000D02*
X6854000Y3720000D01*
G01D02*
X7007500Y3873500D01*
G01D02*
X7420500D01*
G01X7320000Y3720000D02*
X7219500Y3619500D01*
X6700500D01*
X6600000Y3720000D01*
G01X7266700Y1440000D02*
Y1614100D01*
G01X7569600Y2600000D02*
X7240800D01*
G01X8255000Y3073400D02*
X8229600Y3048000D01*
X8138300D01*
X7690300Y2600000D01*
G01D02*
X7569600D01*
G01X7747000Y2413000D02*
X7659900D01*
X7632900Y2440000D01*
X7569600D01*
G01X7489900Y3720000D02*
X7574000D01*
G01D02*
Y3804100D01*
G01Y3635900D02*
Y3720000D01*
G01D02*
X8154500D01*
G01X7420500Y3873500D02*
X7574000Y3720000D01*
G01X7366000Y4127500D02*
X8276600D01*
X8399800Y4004300D01*
Y3937000D01*
G01X8154500Y3720000D02*
X8255000Y3619500D01*
Y3073400D01*
G01D02*
X8280400Y3048000D01*
X9232000D01*
G01X8953500Y1778000D02*
X9050300D01*
G01X8856700D02*
X8953500D01*
G01D02*
Y1874800D01*
G01Y1681200D02*
Y1778000D01*
G01X9263200Y3176000D02*
X9360000D01*
G01D02*
Y3272800D01*
G01Y3079200D02*
Y3176000D01*
G01X9232000Y3048000D02*
X9360000Y3176000D01*
G01X9550400D02*
X9360000D01*
G01X9652000Y1905000D02*
Y3074400D01*
X9550400Y3176000D01*
G54D17*
X2504800Y975200D03*
X2584800Y1824800D03*
X6944800Y2055200D03*
X7024800Y2904800D03*
G54D18*
X2095500Y1270000D03*
X2036000Y1520000D03*
X2476500Y3111500D03*
X2667000Y3175000D03*
X2921000Y2032000D03*
X3683000Y2476500D03*
X5461000Y1714500D03*
X5397500Y2159000D03*
X6417000Y2600000D03*
X6159500Y1968500D03*
X6497500Y1440000D03*
X7747000Y2413000D03*
X7366000Y4127500D03*
G54D19*
X2280000Y1680000D03*
X3129600Y1360000D03*
X6720000Y2760000D03*
X7569600Y2440000D03*
M02*
